<?xml version="1.0" standalone="no"?><!-- Generator: Gravit.io --><svg xmlns="http://www.w3.org/2000/svg" xmlns:xlink="http://www.w3.org/1999/xlink" style="isolation:isolate" viewBox="169.67588426752835 60 441.3241157324717 382.5" width="441.3241157324717" height="382.5"><g opacity="0.59"><path d=" M 180 300 C 180 225.49147101716085 240.4914710171608 165.00000000000003 315 165 C 389.50852898283915 165 450 225.4914710171608 450 299.99999999999994 C 450 374.50852898283915 389.5085289828392 435 315.00000000000006 435 C 240.49147101716085 435 180 374.5085289828392 180 300 Z " fill="rgb(9,22,142)" stroke-width="5" stroke="rgb(255,255,255)" stroke-linejoin="miter" stroke-linecap="square"/></g><g opacity="0.59"><path d=" M 335 300 C 335 225.49147101716085 395.4914710171608 165.00000000000003 470 165 C 544.5085289828392 165 605 225.4914710171608 605 299.99999999999994 C 605 374.50852898283915 544.5085289828392 435 470.00000000000006 435 C 395.49147101716085 435 335 374.5085289828392 335 300 Z " fill="rgb(0,117,180)" stroke-width="4" stroke="rgb(255,255,255)" stroke-linejoin="miter" stroke-linecap="square"/></g><path d=" M 430.4218754652371 169.40013913656816 L 424.18620391408086 148.91204196878937 L 428.5304652834457 147.58984075069193 L 434.766136834602 168.07793791847072 L 430.4218754652371 169.40013913656816 Z  M 448.92285120045324 165.16343491739923 L 441.33917893312145 149.30865978199893 L 441.20879183869044 149.32815131919708 Q 442.24205770686166 154.35761174631745 442.4954476904376 156.05264397392037 L 443.96814161207544 165.90411333092885 L 439.95511659458816 166.50401953136077 L 436.78882466306675 145.32336041379253 L 442.9025306463867 144.4094238918349 L 450.3364721197927 159.85705719220076 L 450.4233968494134 159.84406283406867 L 453.3190107459295 142.85226664233838 L 459.4327167292495 141.93833012038075 L 462.5990086607709 163.118989237949 L 458.4121341840423 163.7448841546451 L 456.9134515461402 153.71956533839528 Q 456.80733095472806 153.0096800464932 456.69045565039085 152.07923434100644 Q 456.57358034605363 151.14878863551968 456.14968933121844 147.12426235670497 L 456.01930223678744 147.14375389390312 L 453.037288402498 164.54836863247988 L 448.92285120045324 165.16343491739923 Z  M 490.0999308236973 164.85376002456857 L 485.6540765598408 164.41174265683347 L 486.6004284979753 154.89324156077348 Q 486.7757862077981 153.12947642658776 486.27311392275476 152.18889975000877 Q 485.77044163771143 151.2483230734298 484.5022799296605 151.12223943082995 Q 482.7968210809025 150.9526786700922 481.89962839365785 152.12945423140928 Q 481.0024357064132 153.3062297927263 480.7169359639745 156.1778143500369 L 479.9546371592903 163.84509088376979 L 475.5087828954338 163.40307351603468 L 477.12903016470545 147.10646673901311 L 480.52537129086465 147.4441390232173 L 480.9157697867073 149.58800745537673 L 481.1635714997747 149.61264448898817 Q 481.93110848072274 148.5554641717132 483.2331588673597 148.0445684857451 Q 484.5352092539967 147.53367279977698 486.13863210325644 147.69308889961584 Q 489.79735151384 148.0568474547028 490.8569914521176 150.57638727437782 L 491.2505588787541 150.61551668070192 Q 492.01954509697333 149.54375979207003 493.35731229336693 149.04377548495853 Q 494.6950794897606 148.54379117784703 496.2985023390203 148.70320727768592 Q 499.0680508968326 148.9785623592258 500.3479659701828 150.54107870047233 Q 501.62788104353314 152.10359504171882 501.3162950302117 155.23755788345372 L 500.2598010594612 165.86387840263862 L 495.7993702242478 165.42041179763226 L 496.7457221623823 155.90191070157226 Q 496.92107987220504 154.13814556738657 496.4184075871617 153.1975688908076 Q 495.9157353021184 152.2569922142286 494.6475735940675 152.13090857162874 Q 493.014997602094 151.96859399724732 492.0900589100847 153.0542870372448 Q 491.16512021807534 154.13998007724223 490.91295293287567 156.67630349334397 L 490.0999308236973 164.85376002456857 Z  M 514.5413514677715 170.91072612444947 L 514.3628455463466 168.52899193086495 L 514.2507355755243 168.49487060910758 Q 512.7579560800516 169.52578628341368 511.4558920565616 169.70369080624025 Q 510.15382803307165 169.88159532906684 508.3180272608562 169.32285868529016 Q 506.061814098057 168.63616708492344 505.15793776063356 166.95237463764738 Q 504.25406142321003 165.26858219037132 504.9791395105538 162.88624531039704 Q 505.7383389196549 160.39179845960044 507.84345680163926 159.7386499626385 Q 509.94857468362363 159.08550146567657 513.504411505151 160.02993421863843 L 516.2486692889102 160.77329379313753 L 516.457662384674 160.0866202218508 Q 517.1827404720177 157.70428334187653 514.7443486066322 156.9621445936541 Q 512.8665065953585 156.39061245421843 509.9845401227103 156.7537310040343 L 509.4477757763304 153.436117568173 Q 512.5832105096054 152.84390607393738 515.876440902511 153.84621990055962 Q 519.0295338318888 154.8058820749852 520.2931972026959 156.6910490439189 Q 521.5568605735032 158.57621601285263 520.7038275295693 161.3789652834106 L 517.5262794409157 171.81920631623902 L 514.5413514677715 170.91072612444947 Z  M 515.4894698798091 163.2677406439341 L 513.8187871493012 162.82050613342432 Q 511.93789822350146 162.30929414461946 510.83933744090467 162.6486632448637 Q 509.7407766583079 162.98803234510797 509.3569117885377 164.24926951685904 Q 508.8067054752004 166.05704279636896 510.88073993541326 166.68828724888 Q 512.366197048809 167.14039476216493 513.516245020611 166.55639422609374 Q 514.6662929924129 165.97239369002256 515.0970746795995 164.55700530839079 L 515.4894698798091 163.2677406439341 Z  M 536.5659736290895 161.81361414447736 Q 537.4049191033295 162.16146958501582 537.9092104820228 162.5132854290519 L 535.9933652900628 166.25421656615214 Q 535.5488099974581 165.91131162998568 534.8316469307692 165.61395133404147 Q 532.8560656527204 164.79480787728957 531.3324654238345 165.35239968638803 Q 529.8088651949483 165.90999149548645 529.0514380260339 167.73672760875067 L 525.8590227733501 175.4360820416939 L 521.7319522952347 173.72485769710946 L 528.0045713681706 158.5967764035584 L 531.1303198286448 159.89281844814533 L 530.684444401541 162.68919335106995 L 530.8874150807926 162.77335192539374 Q 532.118440501294 161.79315205973978 533.6385753771197 161.51163337778598 Q 535.1587102529453 161.23011469583216 536.5659736290895 161.81361414447736 Z  M 542.3975751913597 173.92612886114958 L 545.3483097046203 172.7903116681827 L 551.8404808456792 170.87233105218854 L 556.1639175988913 173.46077566621457 L 546.9342619121796 176.21541931935514 L 548.0908121159134 187.715107918162 L 543.666830321929 185.06646691776328 L 543.0285128091948 176.95019943252635 L 540.5920101954055 177.28413726581087 L 537.9734673881931 181.65784653940923 L 534.1401877087462 179.3628593089501 L 545.8483848582362 159.80684887872292 L 549.681664537683 162.10183610918205 L 544.4596280198514 170.8241183961857 L 542.3473026709735 173.89603066796323 L 542.3975751913597 173.92612886114958 Z  M 563.7938438732663 182.99201945941132 Q 562.6949123516299 182.09129648288427 561.5007299109451 182.27732251248895 Q 560.3065474702604 182.46334854209363 559.1666181040681 183.6692606877916 L 564.0155118284022 187.64358474916867 Q 565.0421492851474 186.34481456465346 564.9674623400251 185.11877850029592 Q 564.8927753949027 183.89274243593837 563.7938438732663 182.99201945941132 Z  M 555.5337718273064 194.0634068962381 Q 552.4748902722358 191.55623984817313 552.1364380270172 188.4567482073902 Q 551.7979857817985 185.3572565666073 554.3330102415086 182.26438743870267 Q 556.9423211322726 179.08088478324038 559.9594433558481 178.64650941861 Q 562.9765655794235 178.21213405397964 565.7862049337106 180.51501341664675 Q 568.4712231876058 182.7157489366149 568.7130928682745 185.47091582653746 Q 568.9549625489431 188.22608271646004 566.7449412250933 190.92243016129999 L 565.3706422505984 192.59915042111643 L 557.2022955794656 185.9040858223948 Q 556.0517870295653 187.42330966461515 556.1896250942184 188.91891848306264 Q 556.3274631588715 190.41452730151013 557.8002579816832 191.62168180613403 Q 558.9445062670984 192.55954799818795 560.1591353336381 193.15735733770413 Q 561.3737644001778 193.7551666772203 562.9111720913181 194.1440326741726 L 560.7197223752318 196.81772173712312 Q 559.4419549443865 196.5280250643736 558.2299253927247 195.90393613455865 Q 557.0178958410629 195.2798472047437 555.5337718273064 194.0634068962381 Z  M 570.7344635581214 203.08307329029185 Q 571.569926269503 203.9048354660557 573.0990950173336 204.68978757589565 L 570.7673448436037 207.06041301944057 Q 569.0529370928357 206.4220093974828 567.3193519667192 204.71685288277283 Q 565.408231014434 202.83707190571306 565.4863793251566 201.01335387472471 Q 565.5645276358791 199.1896358437364 567.4648526673329 197.25762832366672 L 573.0014753265418 191.62869830573405 L 571.4767558782705 190.12898233496506 L 572.8018473866898 188.78179871286244 L 575.6040658546898 189.4422843249551 L 578.9472732557127 187.88160771971997 L 580.983713614705 189.88465302314432 L 578.5389711418077 192.3701545895042 L 581.8077190000877 195.58529910218022 L 579.4554247719636 197.97681111350968 L 576.1866769136836 194.76166660083368 L 570.6500542544748 200.39059661876638 Q 569.9823724866667 201.0694100717638 570.045119505626 201.7680808651164 Q 570.1078665245853 202.46675165846898 570.7344635581214 203.08307329029185 Z " fill-rule="evenodd" fill="rgb(0,0,0)" stroke-width="1" stroke="rgba(0,0,0,0)" stroke-linejoin="miter" stroke-linecap="square"/><path d=" M 194.30729559759607 234.76277543571996 L 189.04438056304784 245.91754553204512 L 169.67588426752835 236.77932489010982 L 174.93879930207657 225.62455479378465 L 178.30377745464972 227.21217999423033 L 174.97851522379503 234.26008699095834 L 179.23110572370047 236.26649521671843 L 182.32509971669498 229.70876220284555 L 185.69007786926812 231.2963874032912 L 182.5960838762736 237.8541204171641 L 187.59055932320305 240.21055624617202 L 190.91582155405777 233.162649249444 L 194.30729559759607 234.76277543571996 Z  M 204.3972387227522 218.915294685032 L 201.92058323715614 222.63378592402898 L 193.95935445333635 217.3313071302774 Q 192.48414973229163 216.34876511795895 191.41768000400978 216.35126098124033 Q 190.35121027572796 216.35375684452168 189.64475444868907 217.4144412307274 Q 188.6946931640506 218.84087885355575 189.31281613394287 220.18537855004132 Q 189.93093910383516 221.5298782465269 192.3327186909906 223.12955408476438 L 198.74559210644117 227.4007697746776 L 196.26893662084507 231.1192610136746 L 182.63853266937411 222.04089762712897 L 184.53053505673114 219.20021415602636 L 186.60688627668526 219.8615374138669 L 186.74492936932504 219.65427724644738 Q 186.17157091505965 218.4803933836744 186.3314441851557 217.09086463305744 Q 186.49131745525176 215.70133588244045 187.38453746645035 214.36024068149072 Q 189.42270312836712 211.3001052684145 192.14485034611647 211.54674716797854 L 192.36409525795614 211.21756925501813 Q 191.77854502913664 210.03556521032516 191.96481464130972 208.61961711428296 Q 192.1510842534828 207.20366901824076 193.0443042646814 205.86257381729104 Q 194.58713882947893 203.5461366520142 196.56755458570132 203.14915637018933 Q 198.5479703419237 202.75217608836445 201.16920187105273 204.49801520116168 L 210.05700552098324 210.4176278208323 L 207.57222985346718 214.14831083438338 L 199.6110010696474 208.8458320406318 Q 198.13579634860267 207.86329002831334 197.06932662032085 207.8657858915947 Q 196.002856892039 207.86828175487608 195.2964010650001 208.9289661410818 Q 194.38694068996156 210.29444489113968 194.91161255772937 211.6207029324906 Q 195.43628442549715 212.94696097384144 197.55765319790856 214.35987262791923 L 204.3972387227522 218.915294685032 Z  M 221.08734593487313 200.0625513148488 L 218.89387092917877 199.11746426474824 L 218.81169879994764 199.2010145569911 Q 219.03383934954275 201.00152318675643 218.58835277788893 202.23787364475172 Q 218.1428662062351 203.474224102747 216.79729759007512 204.84236013822408 Q 215.1435834892983 206.52380976961197 213.2326398842701 206.54488053751206 Q 211.32169627924193 206.56595130541214 209.54625256908082 204.8197935592503 Q 207.68725856667683 202.99146368385732 208.08356236602117 200.8232691458236 Q 208.47986616536548 198.65507460778986 210.96402264121943 195.9412405432846 L 212.89403405589255 193.85351685947148 L 212.38228851590492 193.35021256793073 Q 210.60684480574383 191.6040548217689 208.8196009949664 193.42127367805145 Q 207.44321783034474 194.82074107311962 206.43002011544917 197.54305924358002 L 203.24117695865192 196.48194935544433 Q 204.16875713678698 193.42887542354174 206.58256343295187 190.97458558890727 Q 208.89365456757784 188.6247336195764 211.14972758602025 188.37808781901478 Q 213.40580060446266 188.13144201845319 215.49455791053455 190.18574524923181 L 223.2751788756524 197.83802478388222 L 221.08734593487313 200.0625513148488 Z  M 214.75302805829654 195.68184673486448 L 213.58276429825858 196.95529961006247 Q 212.2584277959122 198.38540928321584 212.050305853245 199.5162021184605 Q 211.84218391057775 200.6469949537052 212.7821246983101 201.57143140755556 Q 214.12937316072646 202.89645699140777 215.64955755150265 201.35077658491457 Q 216.73833826381534 200.2437352126965 216.7535085612356 198.9539922826312 Q 216.7686788586559 197.66424935256586 215.7138564190896 196.62682622102267 L 214.75302805829654 195.68184673486448 Z  M 213.7386344274849 179.1992251501029 Q 212.3558951789027 177.5104830272195 214.23731257755134 175.96998158249033 Q 216.11872997619994 174.42948013776117 217.50146922478214 176.1182222606446 Q 218.16035839692535 176.92292488295817 218.05656915007523 177.75573691430083 Q 217.95277990322515 178.58854894564348 217.01207120390083 179.35879966800803 Q 215.13065380525222 180.89930111273722 213.7386344274849 179.1992251501029 Z  M 230.39993723172705 192.1948565987459 L 226.943116107704 195.0252960002061 L 216.5679316787449 182.35406315870517 L 220.02475280276798 179.52362375724493 L 230.39993723172705 192.1948565987459 Z  M 237.74609097021704 186.73201747920047 L 234.15384142888885 189.38847051316475 L 220.60157611463177 171.0621089187167 L 224.19382565595996 168.4056558847524 L 237.74609097021704 186.73201747920047 Z  M 261.5491512782926 173.74638362101058 L 257.5085279061083 175.65278396012843 L 253.42695603252156 167.00187556000932 Q 252.67064638978954 165.39887415661818 251.7559497763794 164.8505184179858 Q 250.84125316296925 164.30216267935342 249.68868190598553 164.84595556297066 Q 248.1386722845247 165.5772632340421 247.9740735646505 167.04786267004567 Q 247.80947484477628 168.51846210604927 249.04082194905897 171.12830736611585 L 252.32858122242288 178.0967266899484 L 248.28795785023863 180.00312702906626 L 241.29990677111147 165.19192397955143 L 244.38667806855062 163.73555913032368 L 245.82366432020115 165.37374512481063 L 246.0488793934049 165.26748674525325 Q 246.16374898565476 163.9661227619139 247.01792790986474 162.85854523563512 Q 247.87210683407466 161.7509677093563 249.32938083715754 161.06341348869086 Q 252.65461515328295 159.49453976699058 254.85876313931487 161.1109089566848 L 255.2164576673443 160.942145647976 Q 255.32507676667905 159.6275337191541 256.215500801053 158.51095393332872 Q 257.10592483542695 157.39437414750336 258.5631988385098 156.7068199268379 Q 261.08030848019837 155.5192262729612 262.9814062239753 156.2014778982857 Q 264.8825039677522 156.8837295236102 266.2263599445074 159.73203780236307 L 270.7829692796449 169.38979005915763 L 266.729097961978 171.30244089119063 L 262.64752608839126 162.65153249107152 Q 261.8912164456592 161.04853108768037 260.9765198322491 160.500175349048 Q 260.061823218839 159.9518196104156 258.90925196185526 160.49561249403283 Q 257.42548206780725 161.1956677005286 257.19026052673576 162.60240569592457 Q 256.9550389856643 164.0091436913206 258.04262475289875 166.31428620528803 L 261.5491512782926 173.74638362101058 Z  M 285.55291980419923 166.16469430563996 L 284.17278138443316 164.2154021071332 L 284.0591171133211 164.24392128714976 Q 283.3108935615685 165.89659768204274 282.28662245594217 166.7199380992992 Q 281.26235135031584 167.54327851655566 279.40109891085604 168.01028008932687 Q 277.1136054547261 168.58422858716017 275.4713917498026 167.60684248831313 Q 273.8291780448791 166.6294563894661 273.22314546952714 164.2140906283351 Q 272.5885937141586 161.68506059609206 274.05626009441494 160.0406519934633 Q 275.5239264746712 158.39624339083457 279.05805890329304 157.37358181281388 L 281.79302809274776 156.5967434940782 L 281.6183481151463 155.90054983351692 Q 281.0123155397944 153.48518407238592 278.54011764310735 154.10547623774613 Q 276.63624110198054 154.58317250302358 274.3533436657382 156.37926969590777 L 272.1839633575221 153.81246936248166 Q 274.56605925039116 151.68943272179249 277.9049472143075 150.85168180880598 Q 281.1017548393338 150.04957987084015 283.15607886121745 151.0141794917143 Q 285.21040288310104 151.97877911258843 285.9233823835151 154.82038589038962 L 288.57923102255745 165.40537113769898 L 285.55291980419923 166.16469430563996 Z  M 282.42757984811624 159.12577352632124 L 280.76529143922187 159.60326356712156 Q 278.8898825219924 160.13422707045294 278.1232158092981 160.99109889920376 Q 277.35654909660377 161.8479707279546 277.6773898717901 163.1266937779651 Q 278.1372616495572 164.95953014964687 280.24005066513007 164.43192531934048 Q 281.74610225736467 164.054046184121 282.43085366169026 162.9609851255102 Q 283.11560506601586 161.86792406689938 282.7555504183067 160.4329126441098 L 282.42757984811624 159.12577352632124 Z  M 299.7265371749037 146.92009983825395 Q 300.62481844792444 146.78622052394456 301.23827725474115 146.82808309766233 L 301.5226162001123 151.0214325865826 Q 300.9649516800339 150.9564442301187 300.1970660756774 151.07088945041545 Q 298.0817585617898 151.38615364217628 297.06290412343515 152.64877073238233 Q 296.0440496850805 153.91138782258835 296.33556109527035 155.86732285255292 L 297.56422770562597 164.11122679366287 L 293.145263378669 164.76982664631396 L 290.7311170335414 148.5717869166814 L 294.0779391959252 148.07297850368994 L 295.13587416973326 150.6996286679477 L 295.3532002841738 150.66723851125994 Q 295.9036191656576 149.19304231758184 297.0616809735535 148.16885695443546 Q 298.2197427814495 147.14467159128907 299.7265371749037 146.92009983825395 Z  M 310.8905570843788 154.12743500989052 L 312.81813634011473 151.62117223906162 L 317.36174786552834 146.60295242778827 L 322.40063801012263 146.561275220389 L 315.95571423509 153.7193170814748 L 322.93158321877513 162.93439701415835 L 317.77550958244603 162.977043458939 L 313.0039909734017 156.3805400440592 L 311.0978325368758 157.93444463519788 L 311.1399943629657 163.03192652565954 L 306.67237374057834 163.0688787008246 L 306.4838570699002 140.27668955841546 L 310.9514776922876 140.23973738325043 L 311.0355590351222 150.4054052912401 L 310.83196533851145 154.1279196285812 L 310.8905570843788 154.12743500989052 Z  M 333.3481316923512 150.60216777799218 Q 331.93416332278525 150.46200423224326 331.04356210227303 151.27901515711042 Q 330.1529608817608 152.09602608197758 329.87306162788286 153.7316664674927 L 336.1120148461739 154.35012005079724 Q 336.24614416504505 152.70002981520497 335.5041221134811 151.72118056947306 Q 334.7621000619172 150.74233132374113 333.3481316923512 150.60216777799218 Z  M 332.6137665356073 164.3958300109648 Q 328.6779782904237 164.00568405888012 326.67757804447075 161.6140743061052 Q 324.67717779851785 159.2224645533303 325.0716587056256 155.24294532764463 Q 325.4776994927953 151.14681015395357 327.74757227832595 149.11226204518397 Q 330.0174450638567 147.0777139364144 333.6325394520253 147.43607021832918 Q 337.0872869116865 147.77853166515905 338.81637707773393 149.93716380877004 Q 340.54546724378133 152.095795952381 340.20156081194375 155.56512040554284 L 339.9877030308011 157.7225154436435 L 329.4776907168108 156.68068125307667 Q 329.36272763331044 158.5829153332037 330.3067872597958 159.75107477930925 Q 331.2508468862811 160.91923422541478 333.1458560413695 161.1070822764185 Q 334.61813238493824 161.25302576219832 335.96040648516157 161.07695754937896 Q 337.3026805853849 160.90088933655954 338.7976952588067 160.37195616628492 L 338.45667879698453 163.81212663244543 Q 337.23271991662125 164.2796075718549 335.8780363004089 164.4323653094156 Q 334.5233526841964 164.58512304697624 332.6137665356073 164.3958300109648 Z  M 350.31378816117797 164.26883760477875 Q 351.4504308722985 164.5540294049444 353.1665020804396 164.45601673906106 L 352.3572703474696 167.6812404318654 Q 350.5557447115174 167.9994518449687 348.1972110859424 167.40767885962498 Q 345.5971408842543 166.75530261674612 344.7405230734638 165.1433905405902 Q 343.88390526267335 163.5314784644343 344.5434113005564 160.9029921949682 L 346.4648910541723 153.24486192879405 L 344.39051810637744 152.72438689349178 L 344.85038988414453 150.89155052181002 L 347.6009591227087 150.04123384547924 L 349.6925819154298 147.00184882785607 L 352.46314852378595 147.69700384075978 L 351.61470291829323 151.07851590634317 L 356.061817525552 152.1943288244912 L 355.2454559975779 155.44796858507354 L 350.7983413903191 154.33215566692553 L 348.87686163670315 161.99028593309967 Q 348.6451432990686 162.91380813588506 349.0532247134531 163.4843759452698 Q 349.46130612783764 164.05494375465454 350.31378816117797 164.26883760477875 Z " fill-rule="evenodd" fill="rgb(0,0,0)" stroke-width="1" stroke="rgba(0,0,0,0)" stroke-linejoin="miter" stroke-linecap="square"/><path d=" M 226.4462890625 311.63818359375 L 211.4755859375 311.63818359375 L 211.4755859375 308.48876953125 L 216.8515625 303.05419921875 Q 219.2392578125 300.60791015625 219.9716796875 299.6630859375 Q 220.7041015625 298.71826171875 221.0263671875 297.91259765625 Q 221.3486328125 297.10693359375 221.3486328125 296.24267578125 Q 221.3486328125 294.95361328125 220.63818359375 294.32373046875 Q 219.927734375 293.69384765625 218.7412109375 293.69384765625 Q 217.49609375 293.69384765625 216.32421875 294.26513671875 Q 215.15234375 294.83642578125 213.8779296875 295.89111328125 L 211.4169921875 292.97607421875 Q 212.9990234375 291.62841796875 214.0390625 291.07177734375 Q 215.0791015625 290.51513671875 216.3095703125 290.21484375 Q 217.5400390625 289.91455078125 219.0634765625 289.91455078125 Q 221.0703125 289.91455078125 222.6083984375 290.64697265625 Q 224.146484375 291.37939453125 224.99609375 292.69775390625 Q 225.845703125 294.01611328125 225.845703125 295.71533203125 Q 225.845703125 297.19482421875 225.32568359375 298.4912109375 Q 224.8056640625 299.78759765625 223.71435546875 301.14990234375 Q 222.623046875 302.51220703125 219.869140625 305.03173828125 L 217.115234375 307.62451171875 L 217.115234375 307.82958984375 L 226.4462890625 307.82958984375 L 226.4462890625 311.63818359375 Z  M 243.453125 300.93017578125 Q 243.453125 306.54052734375 241.61474609375 309.23583984375 Q 239.7763671875 311.93115234375 235.953125 311.93115234375 Q 232.2470703125 311.93115234375 230.36474609375 309.14794921875 Q 228.482421875 306.36474609375 228.482421875 300.93017578125 Q 228.482421875 295.26123046875 230.3134765625 292.5732421875 Q 232.14453125 289.88525390625 235.953125 289.88525390625 Q 239.6591796875 289.88525390625 241.55615234375 292.69775390625 Q 243.453125 295.51025390625 243.453125 300.93017578125 Z  M 232.9794921875 300.93017578125 Q 232.9794921875 304.87060546875 233.66064453125 306.5771484375 Q 234.341796875 308.28369140625 235.953125 308.28369140625 Q 237.53515625 308.28369140625 238.23828125 306.55517578125 Q 238.94140625 304.82666015625 238.94140625 300.93017578125 Q 238.94140625 296.98974609375 238.23095703125 295.2685546875 Q 237.5205078125 293.54736328125 235.953125 293.54736328125 Q 234.3564453125 293.54736328125 233.66796875 295.2685546875 Q 232.9794921875 296.98974609375 232.9794921875 300.93017578125 Z  M 259.859375 295.01220703125 Q 259.859375 297.01904296875 258.6435546875 298.42529296875 Q 257.427734375 299.83154296875 255.23046875 300.35888671875 L 255.23046875 300.44677734375 Q 257.8232421875 300.76904296875 259.15625 302.021484375 Q 260.4892578125 303.27392578125 260.4892578125 305.39794921875 Q 260.4892578125 308.48876953125 258.248046875 310.2099609375 Q 256.0068359375 311.93115234375 251.8466796875 311.93115234375 Q 248.3603515625 311.93115234375 245.6650390625 310.77392578125 L 245.6650390625 306.92138671875 Q 246.91015625 307.55126953125 248.404296875 307.94677734375 Q 249.8984375 308.34228515625 251.36328125 308.34228515625 Q 253.6044921875 308.34228515625 254.673828125 307.58056640625 Q 255.7431640625 306.81884765625 255.7431640625 305.13427734375 Q 255.7431640625 303.62548828125 254.5126953125 302.99560546875 Q 253.2822265625 302.36572265625 250.5869140625 302.36572265625 L 248.9609375 302.36572265625 L 248.9609375 298.89404296875 L 250.6162109375 298.89404296875 Q 253.1064453125 298.89404296875 254.25634765625 298.2421875 Q 255.40625 297.59033203125 255.40625 296.00830078125 Q 255.40625 293.57666015625 252.359375 293.57666015625 Q 251.3046875 293.57666015625 250.21337890625 293.92822265625 Q 249.1220703125 294.27978515625 247.7890625 295.14404296875 L 245.6943359375 292.02392578125 Q 248.6240234375 289.91455078125 252.681640625 289.91455078125 Q 256.0068359375 289.91455078125 257.93310546875 291.26220703125 Q 259.859375 292.60986328125 259.859375 295.01220703125 Z  M 281.2021484375 311.63818359375 L 276.0458984375 294.83642578125 L 275.9140625 294.83642578125 Q 276.1923828125 299.96337890625 276.1923828125 301.67724609375 L 276.1923828125 311.63818359375 L 272.134765625 311.63818359375 L 272.134765625 290.22216796875 L 278.31640625 290.22216796875 L 283.384765625 306.59912109375 L 283.47265625 306.59912109375 L 288.8486328125 290.22216796875 L 295.0302734375 290.22216796875 L 295.0302734375 311.63818359375 L 290.796875 311.63818359375 L 290.796875 301.50146484375 Q 290.796875 300.78369140625 290.81884765625 299.84619140625 Q 290.8408203125 298.90869140625 291.0166015625 294.86572265625 L 290.884765625 294.86572265625 L 285.3623046875 311.63818359375 L 281.2021484375 311.63818359375 Z " fill-rule="evenodd" fill="rgb(0,0,0)" stroke-width="1" stroke="rgba(0,0,0,0)" stroke-linejoin="miter" stroke-linecap="square"/><path d=" M 474.419921875 263.67919921875 L 474.419921875 262.59521484375 Q 474.419921875 261.18896484375 475.0205078125 260.14892578125 Q 475.62109375 259.10888671875 477.2177734375 257.93701171875 Q 478.755859375 256.83837890625 479.24658203125 256.14990234375 Q 479.7373046875 255.46142578125 479.7373046875 254.61181640625 Q 479.7373046875 253.65966796875 479.0341796875 253.16162109375 Q 478.3310546875 252.66357421875 477.0712890625 252.66357421875 Q 474.8740234375 252.66357421875 472.0615234375 254.09912109375 L 470.46484375 250.89111328125 Q 473.7314453125 249.06005859375 477.3935546875 249.06005859375 Q 480.4111328125 249.06005859375 482.19091796875 250.51025390625 Q 483.970703125 251.96044921875 483.970703125 254.37744140625 Q 483.970703125 255.98876953125 483.23828125 257.16064453125 Q 482.505859375 258.33251953125 480.455078125 259.79736328125 Q 479.048828125 260.83740234375 478.67529296875 261.37939453125 Q 478.3017578125 261.92138671875 478.3017578125 262.80029296875 L 478.3017578125 263.67919921875 L 474.419921875 263.67919921875 Z  M 473.951171875 268.68896484375 Q 473.951171875 267.45849609375 474.6103515625 266.82861328125 Q 475.26953125 266.19873046875 476.529296875 266.19873046875 Q 477.7451171875 266.19873046875 478.41162109375 266.84326171875 Q 479.078125 267.48779296875 479.078125 268.68896484375 Q 479.078125 269.84619140625 478.404296875 270.5126953125 Q 477.73046875 271.17919921875 476.529296875 271.17919921875 Q 475.298828125 271.17919921875 474.625 270.52734375 Q 473.951171875 269.87548828125 473.951171875 268.68896484375 Z  M 488.7314453125 263.67919921875 L 488.7314453125 262.59521484375 Q 488.7314453125 261.18896484375 489.33203125 260.14892578125 Q 489.9326171875 259.10888671875 491.529296875 257.93701171875 Q 493.0673828125 256.83837890625 493.55810546875 256.14990234375 Q 494.048828125 255.46142578125 494.048828125 254.61181640625 Q 494.048828125 253.65966796875 493.345703125 253.16162109375 Q 492.642578125 252.66357421875 491.3828125 252.66357421875 Q 489.185546875 252.66357421875 486.373046875 254.09912109375 L 484.7763671875 250.89111328125 Q 488.04296875 249.06005859375 491.705078125 249.06005859375 Q 494.72265625 249.06005859375 496.50244140625 250.51025390625 Q 498.2822265625 251.96044921875 498.2822265625 254.37744140625 Q 498.2822265625 255.98876953125 497.5498046875 257.16064453125 Q 496.8173828125 258.33251953125 494.7666015625 259.79736328125 Q 493.3603515625 260.83740234375 492.98681640625 261.37939453125 Q 492.61328125 261.92138671875 492.61328125 262.80029296875 L 492.61328125 263.67919921875 L 488.7314453125 263.67919921875 Z  M 488.2626953125 268.68896484375 Q 488.2626953125 267.45849609375 488.921875 266.82861328125 Q 489.5810546875 266.19873046875 490.8408203125 266.19873046875 Q 492.056640625 266.19873046875 492.72314453125 266.84326171875 Q 493.3896484375 267.48779296875 493.3896484375 268.68896484375 Q 493.3896484375 269.84619140625 492.7158203125 270.5126953125 Q 492.0419921875 271.17919921875 490.8408203125 271.17919921875 Q 489.6103515625 271.17919921875 488.9365234375 270.52734375 Q 488.2626953125 269.87548828125 488.2626953125 268.68896484375 Z  M 503.04296875 263.67919921875 L 503.04296875 262.59521484375 Q 503.04296875 261.18896484375 503.6435546875 260.14892578125 Q 504.244140625 259.10888671875 505.8408203125 257.93701171875 Q 507.37890625 256.83837890625 507.86962890625 256.14990234375 Q 508.3603515625 255.46142578125 508.3603515625 254.61181640625 Q 508.3603515625 253.65966796875 507.6572265625 253.16162109375 Q 506.9541015625 252.66357421875 505.6943359375 252.66357421875 Q 503.4970703125 252.66357421875 500.6845703125 254.09912109375 L 499.087890625 250.89111328125 Q 502.3544921875 249.06005859375 506.0166015625 249.06005859375 Q 509.0341796875 249.06005859375 510.81396484375 250.51025390625 Q 512.59375 251.96044921875 512.59375 254.37744140625 Q 512.59375 255.98876953125 511.861328125 257.16064453125 Q 511.12890625 258.33251953125 509.078125 259.79736328125 Q 507.671875 260.83740234375 507.29833984375 261.37939453125 Q 506.9248046875 261.92138671875 506.9248046875 262.80029296875 L 506.9248046875 263.67919921875 L 503.04296875 263.67919921875 Z  M 502.57421875 268.68896484375 Q 502.57421875 267.45849609375 503.2333984375 266.82861328125 Q 503.892578125 266.19873046875 505.15234375 266.19873046875 Q 506.3681640625 266.19873046875 507.03466796875 266.84326171875 Q 507.701171875 267.48779296875 507.701171875 268.68896484375 Q 507.701171875 269.84619140625 507.02734375 270.5126953125 Q 506.353515625 271.17919921875 505.15234375 271.17919921875 Q 503.921875 271.17919921875 503.248046875 270.52734375 Q 502.57421875 269.87548828125 502.57421875 268.68896484375 Z  M 517.3544921875 263.67919921875 L 517.3544921875 262.59521484375 Q 517.3544921875 261.18896484375 517.955078125 260.14892578125 Q 518.5556640625 259.10888671875 520.15234375 257.93701171875 Q 521.6904296875 256.83837890625 522.18115234375 256.14990234375 Q 522.671875 255.46142578125 522.671875 254.61181640625 Q 522.671875 253.65966796875 521.96875 253.16162109375 Q 521.265625 252.66357421875 520.005859375 252.66357421875 Q 517.80859375 252.66357421875 514.99609375 254.09912109375 L 513.3994140625 250.89111328125 Q 516.666015625 249.06005859375 520.328125 249.06005859375 Q 523.345703125 249.06005859375 525.12548828125 250.51025390625 Q 526.9052734375 251.96044921875 526.9052734375 254.37744140625 Q 526.9052734375 255.98876953125 526.1728515625 257.16064453125 Q 525.4404296875 258.33251953125 523.3896484375 259.79736328125 Q 521.9833984375 260.83740234375 521.60986328125 261.37939453125 Q 521.236328125 261.92138671875 521.236328125 262.80029296875 L 521.236328125 263.67919921875 L 517.3544921875 263.67919921875 Z  M 516.8857421875 268.68896484375 Q 516.8857421875 267.45849609375 517.544921875 266.82861328125 Q 518.2041015625 266.19873046875 519.4638671875 266.19873046875 Q 520.6796875 266.19873046875 521.34619140625 266.84326171875 Q 522.0126953125 267.48779296875 522.0126953125 268.68896484375 Q 522.0126953125 269.84619140625 521.3388671875 270.5126953125 Q 520.6650390625 271.17919921875 519.4638671875 271.17919921875 Q 518.2333984375 271.17919921875 517.5595703125 270.52734375 Q 516.8857421875 269.87548828125 516.8857421875 268.68896484375 Z  M 474.419921875 304.53369140625 L 474.419921875 303.44970703125 Q 474.419921875 302.04345703125 475.0205078125 301.00341796875 Q 475.62109375 299.96337890625 477.2177734375 298.79150390625 Q 478.755859375 297.69287109375 479.24658203125 297.00439453125 Q 479.7373046875 296.31591796875 479.7373046875 295.46630859375 Q 479.7373046875 294.51416015625 479.0341796875 294.01611328125 Q 478.3310546875 293.51806640625 477.0712890625 293.51806640625 Q 474.8740234375 293.51806640625 472.0615234375 294.95361328125 L 470.46484375 291.74560546875 Q 473.7314453125 289.91455078125 477.3935546875 289.91455078125 Q 480.4111328125 289.91455078125 482.19091796875 291.36474609375 Q 483.970703125 292.81494140625 483.970703125 295.23193359375 Q 483.970703125 296.84326171875 483.23828125 298.01513671875 Q 482.505859375 299.18701171875 480.455078125 300.65185546875 Q 479.048828125 301.69189453125 478.67529296875 302.23388671875 Q 478.3017578125 302.77587890625 478.3017578125 303.65478515625 L 478.3017578125 304.53369140625 L 474.419921875 304.53369140625 Z  M 473.951171875 309.54345703125 Q 473.951171875 308.31298828125 474.6103515625 307.68310546875 Q 475.26953125 307.05322265625 476.529296875 307.05322265625 Q 477.7451171875 307.05322265625 478.41162109375 307.69775390625 Q 479.078125 308.34228515625 479.078125 309.54345703125 Q 479.078125 310.70068359375 478.404296875 311.3671875 Q 477.73046875 312.03369140625 476.529296875 312.03369140625 Q 475.298828125 312.03369140625 474.625 311.3818359375 Q 473.951171875 310.72998046875 473.951171875 309.54345703125 Z  M 488.7314453125 304.53369140625 L 488.7314453125 303.44970703125 Q 488.7314453125 302.04345703125 489.33203125 301.00341796875 Q 489.9326171875 299.96337890625 491.529296875 298.79150390625 Q 493.0673828125 297.69287109375 493.55810546875 297.00439453125 Q 494.048828125 296.31591796875 494.048828125 295.46630859375 Q 494.048828125 294.51416015625 493.345703125 294.01611328125 Q 492.642578125 293.51806640625 491.3828125 293.51806640625 Q 489.185546875 293.51806640625 486.373046875 294.95361328125 L 484.7763671875 291.74560546875 Q 488.04296875 289.91455078125 491.705078125 289.91455078125 Q 494.72265625 289.91455078125 496.50244140625 291.36474609375 Q 498.2822265625 292.81494140625 498.2822265625 295.23193359375 Q 498.2822265625 296.84326171875 497.5498046875 298.01513671875 Q 496.8173828125 299.18701171875 494.7666015625 300.65185546875 Q 493.3603515625 301.69189453125 492.98681640625 302.23388671875 Q 492.61328125 302.77587890625 492.61328125 303.65478515625 L 492.61328125 304.53369140625 L 488.7314453125 304.53369140625 Z  M 488.2626953125 309.54345703125 Q 488.2626953125 308.31298828125 488.921875 307.68310546875 Q 489.5810546875 307.05322265625 490.8408203125 307.05322265625 Q 492.056640625 307.05322265625 492.72314453125 307.69775390625 Q 493.3896484375 308.34228515625 493.3896484375 309.54345703125 Q 493.3896484375 310.70068359375 492.7158203125 311.3671875 Q 492.0419921875 312.03369140625 490.8408203125 312.03369140625 Q 489.6103515625 312.03369140625 488.9365234375 311.3818359375 Q 488.2626953125 310.72998046875 488.2626953125 309.54345703125 Z  M 503.04296875 304.53369140625 L 503.04296875 303.44970703125 Q 503.04296875 302.04345703125 503.6435546875 301.00341796875 Q 504.244140625 299.96337890625 505.8408203125 298.79150390625 Q 507.37890625 297.69287109375 507.86962890625 297.00439453125 Q 508.3603515625 296.31591796875 508.3603515625 295.46630859375 Q 508.3603515625 294.51416015625 507.6572265625 294.01611328125 Q 506.9541015625 293.51806640625 505.6943359375 293.51806640625 Q 503.4970703125 293.51806640625 500.6845703125 294.95361328125 L 499.087890625 291.74560546875 Q 502.3544921875 289.91455078125 506.0166015625 289.91455078125 Q 509.0341796875 289.91455078125 510.81396484375 291.36474609375 Q 512.59375 292.81494140625 512.59375 295.23193359375 Q 512.59375 296.84326171875 511.861328125 298.01513671875 Q 511.12890625 299.18701171875 509.078125 300.65185546875 Q 507.671875 301.69189453125 507.29833984375 302.23388671875 Q 506.9248046875 302.77587890625 506.9248046875 303.65478515625 L 506.9248046875 304.53369140625 L 503.04296875 304.53369140625 Z  M 502.57421875 309.54345703125 Q 502.57421875 308.31298828125 503.2333984375 307.68310546875 Q 503.892578125 307.05322265625 505.15234375 307.05322265625 Q 506.3681640625 307.05322265625 507.03466796875 307.69775390625 Q 507.701171875 308.34228515625 507.701171875 309.54345703125 Q 507.701171875 310.70068359375 507.02734375 311.3671875 Q 506.353515625 312.03369140625 505.15234375 312.03369140625 Q 503.921875 312.03369140625 503.248046875 311.3818359375 Q 502.57421875 310.72998046875 502.57421875 309.54345703125 Z  M 517.3544921875 304.53369140625 L 517.3544921875 303.44970703125 Q 517.3544921875 302.04345703125 517.955078125 301.00341796875 Q 518.5556640625 299.96337890625 520.15234375 298.79150390625 Q 521.6904296875 297.69287109375 522.18115234375 297.00439453125 Q 522.671875 296.31591796875 522.671875 295.46630859375 Q 522.671875 294.51416015625 521.96875 294.01611328125 Q 521.265625 293.51806640625 520.005859375 293.51806640625 Q 517.80859375 293.51806640625 514.99609375 294.95361328125 L 513.3994140625 291.74560546875 Q 516.666015625 289.91455078125 520.328125 289.91455078125 Q 523.345703125 289.91455078125 525.12548828125 291.36474609375 Q 526.9052734375 292.81494140625 526.9052734375 295.23193359375 Q 526.9052734375 296.84326171875 526.1728515625 298.01513671875 Q 525.4404296875 299.18701171875 523.3896484375 300.65185546875 Q 521.9833984375 301.69189453125 521.60986328125 302.23388671875 Q 521.236328125 302.77587890625 521.236328125 303.65478515625 L 521.236328125 304.53369140625 L 517.3544921875 304.53369140625 Z  M 516.8857421875 309.54345703125 Q 516.8857421875 308.31298828125 517.544921875 307.68310546875 Q 518.2041015625 307.05322265625 519.4638671875 307.05322265625 Q 520.6796875 307.05322265625 521.34619140625 307.69775390625 Q 522.0126953125 308.34228515625 522.0126953125 309.54345703125 Q 522.0126953125 310.70068359375 521.3388671875 311.3671875 Q 520.6650390625 312.03369140625 519.4638671875 312.03369140625 Q 518.2333984375 312.03369140625 517.5595703125 311.3818359375 Q 516.8857421875 310.72998046875 516.8857421875 309.54345703125 Z " fill-rule="evenodd" fill="rgb(0,0,0)" stroke-width="1" stroke="rgba(0,0,0,0)" stroke-linejoin="miter" stroke-linecap="square"/><path d=" M 245.171875 92.0654296875 L 230.201171875 92.0654296875 L 230.201171875 88.916015625 L 235.5771484375 83.4814453125 Q 237.96484375 81.03515625 238.697265625 80.09033203125 Q 239.4296875 79.1455078125 239.751953125 78.33984375 Q 240.07421875 77.5341796875 240.07421875 76.669921875 Q 240.07421875 75.380859375 239.36376953125 74.7509765625 Q 238.6533203125 74.12109375 237.466796875 74.12109375 Q 236.2216796875 74.12109375 235.0498046875 74.6923828125 Q 233.8779296875 75.263671875 232.603515625 76.318359375 L 230.142578125 73.4033203125 Q 231.724609375 72.0556640625 232.7646484375 71.4990234375 Q 233.8046875 70.9423828125 235.03515625 70.64208984375 Q 236.265625 70.341796875 237.7890625 70.341796875 Q 239.7958984375 70.341796875 241.333984375 71.07421875 Q 242.8720703125 71.806640625 243.7216796875 73.125 Q 244.5712890625 74.443359375 244.5712890625 76.142578125 Q 244.5712890625 77.6220703125 244.05126953125 78.91845703125 Q 243.53125 80.21484375 242.43994140625 81.5771484375 Q 241.3486328125 82.939453125 238.5947265625 85.458984375 L 235.8408203125 88.0517578125 L 235.8408203125 88.2568359375 L 245.171875 88.2568359375 L 245.171875 92.0654296875 Z  M 262.1787109375 81.357421875 Q 262.1787109375 86.9677734375 260.34033203125 89.6630859375 Q 258.501953125 92.3583984375 254.6787109375 92.3583984375 Q 250.97265625 92.3583984375 249.09033203125 89.5751953125 Q 247.2080078125 86.7919921875 247.2080078125 81.357421875 Q 247.2080078125 75.6884765625 249.0390625 73.00048828125 Q 250.8701171875 70.3125 254.6787109375 70.3125 Q 258.384765625 70.3125 260.28173828125 73.125 Q 262.1787109375 75.9375 262.1787109375 81.357421875 Z  M 251.705078125 81.357421875 Q 251.705078125 85.2978515625 252.38623046875 87.00439453125 Q 253.0673828125 88.7109375 254.6787109375 88.7109375 Q 256.2607421875 88.7109375 256.9638671875 86.982421875 Q 257.6669921875 85.25390625 257.6669921875 81.357421875 Q 257.6669921875 77.4169921875 256.95654296875 75.69580078125 Q 256.24609375 73.974609375 254.6787109375 73.974609375 Q 253.08203125 73.974609375 252.3935546875 75.69580078125 Q 251.705078125 77.4169921875 251.705078125 81.357421875 Z  M 275.640625 92.0654296875 L 271.1142578125 92.0654296875 L 271.1142578125 79.6728515625 L 271.158203125 77.63671875 L 271.2314453125 75.41015625 Q 270.103515625 76.5380859375 269.6640625 76.8896484375 L 267.203125 78.8671875 L 265.0205078125 76.142578125 L 271.919921875 70.6494140625 L 275.640625 70.6494140625 L 275.640625 92.0654296875 Z  M 283.697265625 92.0654296875 L 291.7392578125 74.4873046875 L 281.177734375 74.4873046875 L 281.177734375 70.6787109375 L 296.5439453125 70.6787109375 L 296.5439453125 73.5205078125 L 288.443359375 92.0654296875 L 283.697265625 92.0654296875 Z  M 299.2099609375 89.970703125 Q 299.2099609375 88.740234375 299.869140625 88.1103515625 Q 300.5283203125 87.48046875 301.7880859375 87.48046875 Q 303.00390625 87.48046875 303.67041015625 88.125 Q 304.3369140625 88.76953125 304.3369140625 89.970703125 Q 304.3369140625 91.1279296875 303.6630859375 91.79443359375 Q 302.9892578125 92.4609375 301.7880859375 92.4609375 Q 300.5576171875 92.4609375 299.8837890625 91.80908203125 Q 299.2099609375 91.1572265625 299.2099609375 89.970703125 Z  M 299.2099609375 77.87109375 Q 299.2099609375 76.640625 299.869140625 76.0107421875 Q 300.5283203125 75.380859375 301.7880859375 75.380859375 Q 303.00390625 75.380859375 303.67041015625 76.025390625 Q 304.3369140625 76.669921875 304.3369140625 77.87109375 Q 304.3369140625 79.0576171875 303.65576171875 79.70947265625 Q 302.974609375 80.361328125 301.7880859375 80.361328125 Q 300.5576171875 80.361328125 299.8837890625 79.716796875 Q 299.2099609375 79.072265625 299.2099609375 77.87109375 Z  M 328.873046875 92.0654296875 L 316.5390625 92.0654296875 L 316.5390625 70.6494140625 L 328.873046875 70.6494140625 L 328.873046875 74.3701171875 L 321.080078125 74.3701171875 L 321.080078125 79.072265625 L 328.3310546875 79.072265625 L 328.3310546875 82.79296875 L 321.080078125 82.79296875 L 321.080078125 88.3154296875 L 328.873046875 88.3154296875 L 328.873046875 92.0654296875 Z  M 347.65234375 92.0654296875 L 343.1845703125 92.0654296875 L 343.1845703125 82.5 Q 343.1845703125 80.7275390625 342.59130859375 79.84130859375 Q 341.998046875 78.955078125 340.7236328125 78.955078125 Q 339.009765625 78.955078125 338.2333984375 80.21484375 Q 337.45703125 81.474609375 337.45703125 84.3603515625 L 337.45703125 92.0654296875 L 332.9892578125 92.0654296875 L 332.9892578125 75.6884765625 L 336.40234375 75.6884765625 L 337.0029296875 77.783203125 L 337.251953125 77.783203125 Q 337.9111328125 76.6552734375 339.15625 76.01806640625 Q 340.4013671875 75.380859375 342.0126953125 75.380859375 Q 345.689453125 75.380859375 346.9931640625 77.783203125 L 347.388671875 77.783203125 Q 348.0478515625 76.640625 349.32958984375 76.0107421875 Q 350.611328125 75.380859375 352.22265625 75.380859375 Q 355.005859375 75.380859375 356.43408203125 76.80908203125 Q 357.8623046875 78.2373046875 357.8623046875 81.38671875 L 357.8623046875 92.0654296875 L 353.3798828125 92.0654296875 L 353.3798828125 82.5 Q 353.3798828125 80.7275390625 352.78662109375 79.84130859375 Q 352.193359375 78.955078125 350.9189453125 78.955078125 Q 349.2783203125 78.955078125 348.46533203125 80.126953125 Q 347.65234375 81.298828125 347.65234375 83.84765625 L 347.65234375 92.0654296875 Z  M 372.84765625 92.0654296875 L 371.9833984375 89.8388671875 L 371.8662109375 89.8388671875 Q 370.73828125 91.259765625 369.54443359375 91.80908203125 Q 368.3505859375 92.3583984375 366.431640625 92.3583984375 Q 364.0732421875 92.3583984375 362.71826171875 91.0107421875 Q 361.36328125 89.6630859375 361.36328125 87.1728515625 Q 361.36328125 84.5654296875 363.18701171875 83.32763671875 Q 365.0107421875 82.08984375 368.6875 81.9580078125 L 371.529296875 81.8701171875 L 371.529296875 81.15234375 Q 371.529296875 78.662109375 368.98046875 78.662109375 Q 367.017578125 78.662109375 364.3662109375 79.8486328125 L 362.88671875 76.8310546875 Q 365.7138671875 75.3515625 369.15625 75.3515625 Q 372.4521484375 75.3515625 374.2099609375 76.787109375 Q 375.9677734375 78.22265625 375.9677734375 81.15234375 L 375.9677734375 92.0654296875 L 372.84765625 92.0654296875 Z  M 371.529296875 84.4775390625 L 369.80078125 84.5361328125 Q 367.8525390625 84.5947265625 366.900390625 85.2392578125 Q 365.9482421875 85.8837890625 365.9482421875 87.2021484375 Q 365.9482421875 89.091796875 368.1162109375 89.091796875 Q 369.6689453125 89.091796875 370.59912109375 88.1982421875 Q 371.529296875 87.3046875 371.529296875 85.8251953125 L 371.529296875 84.4775390625 Z  M 380.376953125 71.455078125 Q 380.376953125 69.2724609375 382.80859375 69.2724609375 Q 385.240234375 69.2724609375 385.240234375 71.455078125 Q 385.240234375 72.4951171875 384.63232421875 73.07373046875 Q 384.0244140625 73.65234375 382.80859375 73.65234375 Q 380.376953125 73.65234375 380.376953125 71.455078125 Z  M 385.03515625 92.0654296875 L 380.5673828125 92.0654296875 L 380.5673828125 75.6884765625 L 385.03515625 75.6884765625 L 385.03515625 92.0654296875 Z  M 394.1904296875 92.0654296875 L 389.72265625 92.0654296875 L 389.72265625 69.2724609375 L 394.1904296875 69.2724609375 L 394.1904296875 92.0654296875 Z  M 418.2724609375 92.0654296875 L 417.671875 89.970703125 L 417.4375 89.970703125 Q 416.7197265625 91.11328125 415.4013671875 91.73583984375 Q 414.0830078125 92.3583984375 412.3984375 92.3583984375 Q 409.5126953125 92.3583984375 408.0478515625 90.81298828125 Q 406.5830078125 89.267578125 406.5830078125 86.3671875 L 406.5830078125 75.6884765625 L 411.05078125 75.6884765625 L 411.05078125 85.25390625 Q 411.05078125 87.0263671875 411.6806640625 87.91259765625 Q 412.310546875 88.798828125 413.6875 88.798828125 Q 415.5625 88.798828125 416.3974609375 87.54638671875 Q 417.232421875 86.2939453125 417.232421875 83.3935546875 L 417.232421875 75.6884765625 L 421.7001953125 75.6884765625 L 421.7001953125 92.0654296875 L 418.2724609375 92.0654296875 Z  M 437.8134765625 87.2021484375 Q 437.8134765625 89.7216796875 436.06298828125 91.0400390625 Q 434.3125 92.3583984375 430.826171875 92.3583984375 Q 429.0390625 92.3583984375 427.779296875 92.11669921875 Q 426.51953125 91.875 425.4208984375 91.40625 L 425.4208984375 87.71484375 Q 426.666015625 88.30078125 428.22607421875 88.6962890625 Q 429.7861328125 89.091796875 430.97265625 89.091796875 Q 433.404296875 89.091796875 433.404296875 87.685546875 Q 433.404296875 87.158203125 433.08203125 86.82861328125 Q 432.759765625 86.4990234375 431.96875 86.08154296875 Q 431.177734375 85.6640625 429.859375 85.107421875 Q 427.9697265625 84.31640625 427.08349609375 83.642578125 Q 426.197265625 82.96875 425.79443359375 82.09716796875 Q 425.3916015625 81.2255859375 425.3916015625 79.951171875 Q 425.3916015625 77.7685546875 427.08349609375 76.57470703125 Q 428.775390625 75.380859375 431.880859375 75.380859375 Q 434.83984375 75.380859375 437.6376953125 76.669921875 L 436.2900390625 79.892578125 Q 435.0595703125 79.365234375 433.990234375 79.0283203125 Q 432.9208984375 78.69140625 431.8076171875 78.69140625 Q 429.830078125 78.69140625 429.830078125 79.7607421875 Q 429.830078125 80.361328125 430.46728515625 80.80078125 Q 431.1044921875 81.240234375 433.2578125 82.1044921875 Q 435.1767578125 82.880859375 436.0703125 83.5546875 Q 436.9638671875 84.228515625 437.388671875 85.107421875 Q 437.8134765625 85.986328125 437.8134765625 87.2021484375 Z  M 448.08203125 78.5595703125 Q 446.6611328125 78.5595703125 445.85546875 79.46044921875 Q 445.0498046875 80.361328125 444.9326171875 82.0166015625 L 451.2021484375 82.0166015625 Q 451.1728515625 80.361328125 450.337890625 79.46044921875 Q 449.5029296875 78.5595703125 448.08203125 78.5595703125 Z  M 448.7119140625 92.3583984375 Q 444.7568359375 92.3583984375 442.5302734375 90.17578125 Q 440.3037109375 87.9931640625 440.3037109375 83.994140625 Q 440.3037109375 79.8779296875 442.36181640625 77.62939453125 Q 444.419921875 75.380859375 448.052734375 75.380859375 Q 451.5244140625 75.380859375 453.4580078125 77.3583984375 Q 455.3916015625 79.3359375 455.3916015625 82.822265625 L 455.3916015625 84.990234375 L 444.830078125 84.990234375 Q 444.9033203125 86.89453125 445.9580078125 87.9638671875 Q 447.0126953125 89.033203125 448.9169921875 89.033203125 Q 450.396484375 89.033203125 451.71484375 88.7255859375 Q 453.033203125 88.41796875 454.46875 87.744140625 L 454.46875 91.201171875 Q 453.296875 91.787109375 451.9638671875 92.07275390625 Q 450.630859375 92.3583984375 448.7119140625 92.3583984375 Z  M 468.1650390625 75.380859375 Q 469.0732421875 75.380859375 469.673828125 75.5126953125 L 469.3369140625 79.7021484375 Q 468.794921875 79.5556640625 468.0185546875 79.5556640625 Q 465.8798828125 79.5556640625 464.68603515625 80.654296875 Q 463.4921875 81.7529296875 463.4921875 83.73046875 L 463.4921875 92.0654296875 L 459.0244140625 92.0654296875 L 459.0244140625 75.6884765625 L 462.408203125 75.6884765625 L 463.0673828125 78.4423828125 L 463.287109375 78.4423828125 Q 464.048828125 77.0654296875 465.34521484375 76.22314453125 Q 466.6416015625 75.380859375 468.1650390625 75.380859375 Z  M 484.0732421875 87.2021484375 Q 484.0732421875 89.7216796875 482.32275390625 91.0400390625 Q 480.572265625 92.3583984375 477.0859375 92.3583984375 Q 475.298828125 92.3583984375 474.0390625 92.11669921875 Q 472.779296875 91.875 471.6806640625 91.40625 L 471.6806640625 87.71484375 Q 472.92578125 88.30078125 474.48583984375 88.6962890625 Q 476.0458984375 89.091796875 477.232421875 89.091796875 Q 479.6640625 89.091796875 479.6640625 87.685546875 Q 479.6640625 87.158203125 479.341796875 86.82861328125 Q 479.01953125 86.4990234375 478.228515625 86.08154296875 Q 477.4375 85.6640625 476.119140625 85.107421875 Q 474.2294921875 84.31640625 473.34326171875 83.642578125 Q 472.45703125 82.96875 472.05419921875 82.09716796875 Q 471.6513671875 81.2255859375 471.6513671875 79.951171875 Q 471.6513671875 77.7685546875 473.34326171875 76.57470703125 Q 475.03515625 75.380859375 478.140625 75.380859375 Q 481.099609375 75.380859375 483.8974609375 76.669921875 L 482.5498046875 79.892578125 Q 481.3193359375 79.365234375 480.25 79.0283203125 Q 479.1806640625 78.69140625 478.0673828125 78.69140625 Q 476.08984375 78.69140625 476.08984375 79.7607421875 Q 476.08984375 80.361328125 476.72705078125 80.80078125 Q 477.3642578125 81.240234375 479.517578125 82.1044921875 Q 481.4365234375 82.880859375 482.330078125 83.5546875 Q 483.2236328125 84.228515625 483.6484375 85.107421875 Q 484.0732421875 85.986328125 484.0732421875 87.2021484375 Z  M 495.162109375 71.455078125 Q 495.162109375 69.2724609375 497.59375 69.2724609375 Q 500.025390625 69.2724609375 500.025390625 71.455078125 Q 500.025390625 72.4951171875 499.41748046875 73.07373046875 Q 498.8095703125 73.65234375 497.59375 73.65234375 Q 495.162109375 73.65234375 495.162109375 71.455078125 Z  M 499.8203125 92.0654296875 L 495.3525390625 92.0654296875 L 495.3525390625 75.6884765625 L 499.8203125 75.6884765625 L 499.8203125 92.0654296875 Z  M 519.625 92.0654296875 L 515.1572265625 92.0654296875 L 515.1572265625 82.5 Q 515.1572265625 80.7275390625 514.52734375 79.84130859375 Q 513.8974609375 78.955078125 512.5205078125 78.955078125 Q 510.6455078125 78.955078125 509.810546875 80.20751953125 Q 508.9755859375 81.4599609375 508.9755859375 84.3603515625 L 508.9755859375 92.0654296875 L 504.5078125 92.0654296875 L 504.5078125 75.6884765625 L 507.9208984375 75.6884765625 L 508.521484375 77.783203125 L 508.7705078125 77.783203125 Q 509.517578125 76.5966796875 510.82861328125 75.98876953125 Q 512.1396484375 75.380859375 513.8095703125 75.380859375 Q 516.666015625 75.380859375 518.1455078125 76.92626953125 Q 519.625 78.4716796875 519.625 81.38671875 L 519.625 92.0654296875 Z  M 549.80078125 70.6494140625 L 549.80078125 84.5068359375 Q 549.80078125 86.8798828125 548.73876953125 88.6669921875 Q 547.6767578125 90.4541015625 545.669921875 91.40625 Q 543.6630859375 92.3583984375 540.923828125 92.3583984375 Q 536.79296875 92.3583984375 534.5078125 90.24169921875 Q 532.22265625 88.125 532.22265625 84.4482421875 L 532.22265625 70.6494140625 L 536.7490234375 70.6494140625 L 536.7490234375 83.759765625 Q 536.7490234375 86.2353515625 537.7451171875 87.392578125 Q 538.7412109375 88.5498046875 541.041015625 88.5498046875 Q 543.267578125 88.5498046875 544.27099609375 87.38525390625 Q 545.2744140625 86.220703125 545.2744140625 83.73046875 L 545.2744140625 70.6494140625 L 549.80078125 70.6494140625 Z  M 567.6865234375 86.1181640625 Q 567.6865234375 89.0185546875 565.59912109375 90.6884765625 Q 563.51171875 92.3583984375 559.791015625 92.3583984375 Q 556.36328125 92.3583984375 553.7265625 91.0693359375 L 553.7265625 86.8505859375 Q 555.89453125 87.8173828125 557.39599609375 88.212890625 Q 558.8974609375 88.6083984375 560.142578125 88.6083984375 Q 561.63671875 88.6083984375 562.43505859375 88.037109375 Q 563.2333984375 87.4658203125 563.2333984375 86.337890625 Q 563.2333984375 85.7080078125 562.8818359375 85.21728515625 Q 562.5302734375 84.7265625 561.84912109375 84.2724609375 Q 561.16796875 83.818359375 559.0732421875 82.822265625 Q 557.1103515625 81.8994140625 556.12890625 81.0498046875 Q 555.1474609375 80.2001953125 554.5615234375 79.072265625 Q 553.9755859375 77.9443359375 553.9755859375 76.435546875 Q 553.9755859375 73.59375 555.90185546875 71.9677734375 Q 557.828125 70.341796875 561.2265625 70.341796875 Q 562.896484375 70.341796875 564.41259765625 70.7373046875 Q 565.9287109375 71.1328125 567.583984375 71.8505859375 L 566.119140625 75.380859375 Q 564.4052734375 74.677734375 563.28466796875 74.3994140625 Q 562.1640625 74.12109375 561.080078125 74.12109375 Q 559.791015625 74.12109375 559.1025390625 74.7216796875 Q 558.4140625 75.322265625 558.4140625 76.2890625 Q 558.4140625 76.8896484375 558.6923828125 77.33642578125 Q 558.970703125 77.783203125 559.57861328125 78.20068359375 Q 560.1865234375 78.6181640625 562.45703125 79.7021484375 Q 565.4599609375 81.1376953125 566.5732421875 82.58056640625 Q 567.6865234375 84.0234375 567.6865234375 86.1181640625 Z " fill-rule="evenodd" fill="rgb(0,0,0)" stroke-width="1" stroke="rgba(0,0,0,0)" stroke-linejoin="miter" stroke-linecap="square"/></svg>