<?xml version="1.0" standalone="no"?><!-- Generator: Gravit.io --><svg xmlns="http://www.w3.org/2000/svg" xmlns:xlink="http://www.w3.org/1999/xlink" style="isolation:isolate" viewBox="99.99999999999997 96.8684123179421 608 416.2631753641157" width="608" height="416.2631753641157"><g style="opacity:0.59;"><g opacity="0.59"><path d=" M 114.22955727839758 317.0633294057841 C 114.22955727839758 214.36946114975345 197.60394729864055 130.99507112951045 300.2978155546713 130.99507112951042 C 402.9916838107019 130.99507112951042 486.366073830945 214.3694611497534 486.366073830945 317.0633294057841 C 486.366073830945 419.75719766181476 402.991683810702 503.1315876820578 300.29781555467133 503.1315876820578 C 197.6039472986406 503.1315876820578 114.22955727839758 419.75719766181487 114.22955727839758 317.0633294057841 Z " fill="rgb(9,22,142)" fill-opacity="100" stroke-width="5" stroke="rgb(255,255,255)" stroke-opacity="100" stroke-linejoin="miter" stroke-linecap="square"/></g></g><g style="opacity:0.59;"><g opacity="0.59"><path d=" M 327.86348344745255 317.0633294057841 C 327.86348344745255 214.36946114975345 411.23787346769547 130.99507112951045 513.9317417237262 130.99507112951042 C 616.625609979757 130.99507112951042 700 214.3694611497534 700 317.0633294057841 C 700 419.75719766181476 616.625609979757 503.1315876820578 513.9317417237264 503.1315876820578 C 411.2378734676956 503.1315876820578 327.86348344745255 419.75719766181487 327.86348344745255 317.0633294057841 Z " fill="rgb(0,117,180)" fill-opacity="100" stroke-width="4" stroke="rgb(255,255,255)" stroke-opacity="100" stroke-linejoin="miter" stroke-linecap="square"/></g></g><path d=" M 459.3818698865056 137.05970983554377 L 450.7873473331237 108.82130572144263 L 456.7749706404913 106.9989377381674 L 465.3694931938732 135.23734185226854 L 459.3818698865056 137.05970983554377 Z  M 484.8814575269743 131.22033076226597 L 474.42900797052613 109.36795746740742 L 474.24929760339654 109.39482232946361 Q 475.67343079174424 116.32684412015792 476.0226739984749 118.6630788928411 L 478.0524635760542 132.24119552040148 L 472.52137783218035 133.0680362747978 L 468.15733024038474 103.875085525543 L 476.58374967690014 102.61542199357461 L 486.8298277664142 123.90663845794231 L 486.9496346778339 123.88872854990487 L 490.9406112286883 100.46921801375171 L 499.3670306652037 99.20955448178333 L 503.7310782569993 128.40250523103813 L 497.9603786902862 129.26516580150937 L 495.89476929663175 115.4474353511097 Q 495.7485050476592 114.46901224118255 495.5874177564478 113.18659437569693 Q 495.4263304652364 111.9041765102113 494.84208851835234 106.35723876883245 L 494.66237815122287 106.38410363088863 L 490.55231800083783 130.3725951151593 L 484.8814575269743 131.22033076226597 Z  M 541.6351426114222 130.79351099974085 L 535.5074955045634 130.18428580164948 L 536.8118366663787 117.06509379909627 Q 537.0535292859495 114.63412560260474 536.3607044225289 113.33774438789115 Q 535.6678795591083 112.04136317317753 533.9199933351847 111.86758418224656 Q 531.5693877237013 111.63388140133938 530.3328019410803 113.25581161671977 Q 529.0962161584596 114.87774183210007 528.7027166042826 118.83559914374322 L 527.6520528200331 129.40327907229303 L 521.5244057131745 128.79405387420167 L 523.7575656196209 106.33271136447041 L 528.4386861963358 106.79811946661889 L 528.9767659604477 109.7529777269551 L 529.3183069467316 109.78693454127492 Q 530.3761904223438 108.32984046483557 532.1707848492288 107.62568142447299 Q 533.9653792761139 106.9215223841104 536.1753503638336 107.14124294735643 Q 541.2181025730845 107.64260532349067 542.6785867043088 111.11524521908066 L 543.2210341531127 111.16917663005927 Q 544.2809150883907 109.6919919073679 546.1247374010727 109.002871839296 Q 547.968559713755 108.3137517712241 550.1785308014746 108.53347233447016 Q 553.9957535893539 108.91298967098606 555.7598392815007 111.06657999797835 Q 557.5239249736476 113.22017032497058 557.0944711454849 117.53965926914964 L 555.6383230490633 132.18574038685455 L 549.4905852959525 131.57451772909732 L 550.7949264577678 118.45532572654409 Q 551.0366190773384 116.02435753005261 550.3437942139178 114.72797631533899 Q 549.6509693504975 113.4315951006254 547.9030831265738 113.25781610969437 Q 545.6529307463504 113.03410062711657 544.3781031060946 114.53049331582028 Q 543.103275465839 116.02688600452396 542.7557174839772 119.52265845237122 L 541.6351426114222 130.79351099974085 Z  M 575.322346826538 139.14172679709844 L 575.0763150791934 135.85902210763683 L 574.9217957680355 135.8119932564555 Q 572.8643225775679 137.23288721162473 571.0697093552346 137.47809006126778 Q 569.2750961329016 137.72329291091086 566.7448424126912 136.9531954728171 Q 563.6351412756392 136.00673984279354 562.3893435289613 133.68599667269427 Q 561.1435457822831 131.36525350259498 562.1429088698858 128.0817181404902 Q 563.1893008086697 124.64366346722755 566.0907498291665 123.74343973963144 Q 568.9921988496633 122.84321601203536 573.8931496948205 124.14491199279593 L 577.6755146287849 125.169472150574 L 577.9635663422703 124.22304136973202 Q 578.9629294298727 120.93950600762724 575.6021344121891 119.91662849443404 Q 573.0139359502948 119.1288952371473 569.0417694171374 119.62937550464395 L 568.3019560316875 115.05676399616485 Q 572.623473659535 114.24052872754552 577.1624784247977 115.62200123099609 Q 581.5083340511128 116.94468767047007 583.2500202915098 119.54298199987346 Q 584.9917065319071 122.14127632927688 583.8159852523747 126.00425910822366 L 579.4364234861164 140.39386995980047 L 575.322346826538 139.14172679709844 Z  M 576.6291226900012 128.60752682383662 L 574.3264484248318 127.99111092449147 Q 571.7340504512415 127.28651592918132 570.2199223665866 127.75426272470156 Q 568.7057942819317 128.22200952022183 568.1767197061422 129.96035177074788 Q 567.4183794808439 132.4519756631686 570.2769867372645 133.32200941002256 Q 572.3243676101063 133.94514168817477 573.9094596326793 133.14022344684753 Q 575.494551655252 132.3353052055203 576.088290901416 130.3844989021522 L 576.6291226900012 128.60752682383662 Z  M 605.6785178246821 126.60332841593078 Q 606.8348224408346 127.0827717933598 607.5298788741475 127.56767372916565 L 604.8893012593699 132.72373699591913 Q 604.2765780815739 132.25111681646112 603.2881241355083 131.84127005833628 Q 600.5652132652137 130.7122582340679 598.465260369672 131.48077776553504 Q 596.3653074741298 132.24929729700216 595.3213581845666 134.76705734830173 L 590.9213052530001 145.3789497126681 L 585.2330325445084 143.0203976140252 L 593.8784792536323 122.16961437437394 L 598.1866464525226 123.95592760318218 L 597.5721037552678 127.81012469706857 L 597.8518548720788 127.92611906257557 Q 599.5485567675346 126.57512586431727 601.6437334244968 126.18711333969966 Q 603.7389100814589 125.79910081508203 605.6785178246821 126.60332841593078 Z  M 613.7161174221105 143.2978063172414 L 617.783065803726 141.73232834082958 L 626.7311174826023 139.08880750656522 L 632.6900385673268 142.65641773602025 L 619.9689573960961 146.45309734129177 L 621.5630113369689 162.3029271805474 L 615.4655106921346 158.65234927133767 L 614.5857282638258 147.46583256998665 L 611.2275371702451 147.92609354044447 L 607.6184431009128 153.95430440522398 L 602.3350973717238 150.79116161457347 L 618.4723110840262 123.83743717320297 L 623.7556568132152 127.00057996385348 L 616.5582105944891 139.02235680338507 L 613.6468276420555 143.256322477364 L 613.7161174221105 143.2978063172414 Z  M 643.2062392536182 155.79317278643995 Q 641.6916001855013 154.55172126472286 640.0456783573359 154.8081178522976 Q 638.3997565291706 155.06451443987237 636.8286108126863 156.72660312568144 L 643.5117605153055 162.20434798439194 Q 644.926757874252 160.41427460562235 644.8238180979936 158.7244494568897 Q 644.7208783217352 157.03462430815708 643.2062392536182 155.79317278643995 Z  M 631.8215191141494 171.05268224623384 Q 627.6055134606279 167.5970955362997 627.1390303511646 163.32511767598598 Q 626.6725472417015 159.05313981567232 630.1665293595238 154.79028965488956 Q 633.7628992317145 150.4025208080765 637.9213486920651 149.8038284559662 Q 642.0797981524158 149.20513610385586 645.952277419354 152.37915648927694 Q 649.6529934930006 155.41239371244137 649.986358457533 159.20979448628103 Q 650.319723422065 163.00719526012065 647.2736877296045 166.72352616952102 L 645.3795142737888 169.03452186108095 L 634.1212176953113 159.80682549862703 Q 632.5354908655934 161.90074649309915 632.725470781254 163.96211929244103 Q 632.9154506969144 166.02349209178297 634.9453793449063 167.68729310026984 Q 636.5224777560381 168.97993849917114 638.1965808290959 169.80388918498645 Q 639.8706839021534 170.62783987080175 641.9896673936425 171.16380741714082 L 638.9692286397742 174.84890865503363 Q 637.2081030076295 174.44962454150075 635.5375828027622 173.58945313275873 Q 633.867062597895 172.72928172401677 631.8215191141494 171.05268224623384 Z  M 652.772380113759 183.48433866234214 Q 653.9238844956963 184.61695982353993 656.0315123884322 185.69884628211926 L 652.8176998435335 188.9662399658661 Q 650.4547601090096 188.08633885464425 648.06538851649 185.73614994515887 Q 645.4313222428084 183.14527903891897 645.5390327617965 180.6316787603039 Q 645.6467432807844 178.11807848168885 648.2659297160542 175.455224598459 L 655.8969647896242 167.69696382515704 L 653.7954692925887 165.62993020597114 L 655.6218209150202 163.7731293900974 L 659.4840720976154 164.68346574164272 L 664.0919593432798 162.5324110922455 L 666.8987512742517 165.29317517266506 L 663.5292033196883 168.71890070892826 L 668.0344642140178 173.1502810021145 L 664.792336140089 176.44646229540976 L 660.2870752457598 172.01508200222352 L 652.6560401721897 179.77334277552555 Q 651.7357854787167 180.7089400858495 651.8222686530114 181.6719064386467 Q 651.9087518273061 182.63487279144383 652.772380113759 183.48433866234214 Z " fill-rule="evenodd" fill="rgb(0,0,0)" fill-opacity="100" stroke-width="1" stroke="rgb(0,0,0)" stroke-opacity="0" stroke-linejoin="miter" stroke-linecap="square"/><path d=" M 133.94906522275681 227.14794607649728 L 126.6952768232427 242.52238047127864 L 99.99999999999997 229.92732270395126 L 107.25378839951406 214.5528883091699 L 111.89168191052886 216.74108575985466 L 107.3085281949214 226.4550989404054 L 113.16980306514091 229.22049808083776 L 117.43420360879824 220.18208356134036 L 122.07209711981307 222.37028101202512 L 117.8076965761557 231.4086955315225 L 124.6914991495911 234.6565319051767 L 129.27465286519856 224.94251872462596 L 133.94906522275681 227.14794607649728 Z  M 147.8558662850121 205.30562651096184 L 144.4423331549733 210.4307612387822 L 133.46950372131192 203.12244276692863 Q 131.43625355060283 201.76822142681485 129.96635603322676 201.77166143373088 Q 128.4964585158507 201.77510144064686 127.52276218039697 203.2370251171071 Q 126.21330848789029 205.20306040613988 127.06525711313782 207.05616201190318 Q 127.91720573838529 208.90926361766648 131.22753866094473 211.11407026231458 L 140.06629560138254 217.0010159226438 L 136.6527624713437 222.12615065046415 L 117.86620304280859 209.61359314428907 L 120.47391851592025 205.6983262866427 L 123.33571892382156 206.60981715141295 L 123.52598142615159 206.32415390428847 Q 122.73573098946167 204.70620926899372 122.95608166288173 202.7910448656448 Q 123.17643233630179 200.87588046229584 124.40754264549611 199.0274712161967 Q 127.21671253283955 194.8097373910068 130.9686028408264 195.14967982559816 L 131.2707844621741 194.69597937428287 Q 130.4637303050651 193.06684282708633 130.72046261844912 191.1152650786406 Q 130.97719493183314 189.1636873301948 132.20830524102746 187.31527808409564 Q 134.3347685023631 184.12257120446984 137.06434265364595 183.57541987403144 Q 139.79391680492887 183.0282685435931 143.40671669503178 185.4345296024729 L 155.65662888054345 193.5934333788608 L 152.23190383860288 198.73537182710024 L 141.2590744049415 191.42705335524667 Q 139.2258242342324 190.0728320151329 137.75592671685632 190.07627202204887 Q 136.28602919948025 190.0797120289649 135.31233286402653 191.54163570542514 Q 134.0588387310287 193.4236523923624 134.78198525400728 195.25161182776296 Q 135.50513177698588 197.07957126316333 138.4289791299064 199.02696393407078 L 147.8558662850121 205.30562651096184 Z  M 170.8595639102241 179.32120338044663 L 167.8363337333197 178.01860559280456 L 167.72307725209828 178.1337615732202 Q 168.02924988288123 180.6153727195301 167.41524313863607 182.31941402573935 Q 166.80123639439097 184.02345533194867 164.94666151439014 185.90913451125405 Q 162.66737482980898 188.22664861711795 160.0335529909069 188.25569010662693 Q 157.3997311520049 188.2847315961359 154.95266656817347 185.87803137018065 Q 152.39044600392646 183.35807466300403 152.9366649497951 180.36968813488502 Q 153.48288389566375 177.38130160676602 156.90675551601834 173.64086917985256 L 159.56685820032612 170.76339429385823 L 158.86152782028057 170.06969834637707 Q 156.4144632364492 167.6629981204218 153.95113476988325 170.16764069446108 Q 152.05408870942443 172.0965033664223 150.65761512349758 175.84862929569206 L 146.26248555237555 174.38611915698735 Q 147.54095390909544 170.1781180540406 150.86786304497474 166.79541112933245 Q 154.05320157932726 163.5566491801438 157.16270955773967 163.21670136887226 Q 160.27221753615208 162.87675355760078 163.15111704654197 165.70816558813632 L 173.87501772274447 176.25517540188136 L 170.8595639102241 179.32120338044663 Z  M 162.1290787645732 173.2833510010349 L 160.516123656765 175.0385299527757 Q 158.6908126466666 177.00962636779568 158.40396162902834 178.56817935539024 Q 158.11711061139005 180.1267323429848 159.41261539106551 181.40086775672577 Q 161.26950557526703 183.22712851642123 163.36475047786337 181.09674287873267 Q 164.8653988540472 179.57092613822604 164.8863078230733 177.7932948743639 Q 164.9072167920994 176.01566361050178 163.45337253935253 174.5858005350813 L 162.1290787645732 173.2833510010349 Z  M 160.73095686759785 150.56562737063862 Q 158.82515032216133 148.2380621448409 161.41827668110375 146.1148145841532 Q 164.01140304004616 143.99156702346554 165.91720958548268 146.31913224926325 Q 166.82534559035514 147.42824051122057 166.68229459487958 148.5760915048758 Q 166.53924359940402 149.723942498531 165.24268041993275 150.7855662788748 Q 162.6495540609904 152.90881383956253 160.73095686759785 150.56562737063862 Z  M 183.6949538557381 168.47729039915245 L 178.93047470225957 172.3784380257172 L 164.6305302875075 154.9138882106713 L 169.39500944098603 151.01274058410652 L 183.6949538557381 168.47729039915245 Z  M 193.8200355679645 160.94794995309834 L 188.86889767575212 164.60929505844987 L 170.19003543336862 139.350375188671 L 175.141173325581 135.68903008331947 L 193.8200355679645 160.94794995309834 Z  M 226.62739833217728 143.0500664374924 L 221.0582742343052 145.6776263684328 L 215.4327114969147 133.75422297200504 Q 214.39030247513176 131.5448327561279 213.12959132173597 130.78904314721586 Q 211.86888016834018 130.03325353830382 210.28031034370127 130.78275423991636 Q 208.143957820911 131.7907034593263 207.91709413852954 133.81760624213558 Q 207.69023045614807 135.84450902494493 209.38737572301778 139.44161540947215 L 213.9188397350659 149.04607205039255 L 208.3497156371938 151.67363198133296 L 198.71820087394326 131.25959676355922 L 202.97264649625214 129.25231327533257 L 204.95322078522668 131.5101978288642 L 205.2636309808458 131.36374366877902 Q 205.42195383239277 129.57009530016106 206.59925445968202 128.04353958741558 Q 207.77655508697126 126.51698387467007 209.7850916468596 125.5693393094129 Q 214.3682068880592 123.40698671050782 217.40614745653414 125.63480152426956 L 217.89915188487032 125.40219785825187 Q 218.0488597858241 123.5902900663622 219.27611644658924 122.05132668876945 Q 220.50337310735438 120.51236331117673 222.5119096672426 119.56471874591952 Q 225.98120008886792 117.92787813320251 228.60145154070142 118.86821421935281 Q 231.22170299253492 119.80855030550308 233.0739173700831 123.73432630892111 L 239.3542163525604 137.04544587399903 L 233.7668328314166 139.6816207555327 L 228.14127009402614 127.75821735910492 Q 227.09886107224315 125.54882714322778 225.83814991884736 124.79303753431574 Q 224.57743876545163 124.0372479254037 222.98886894081272 124.78674862701618 Q 220.94381353438098 125.75162309345993 220.61961159026072 127.69050671312206 Q 220.2954096461405 129.62939033278423 221.79441104936552 132.8065299820621 L 226.62739833217728 143.0500664374924 Z  M 259.71139390019425 132.60034995080466 L 257.80917203392727 129.9136728823033 L 257.6525104564898 129.95298039454886 Q 256.62124635963124 132.2308368263418 255.2095105031379 133.36563325158158 Q 253.79777464664454 134.50042967682137 251.23244131610562 135.14409018984225 Q 248.07962707017623 135.93515387378392 245.81619119023145 134.588038843592 Q 243.55275531028667 133.24092381340006 242.71747067506874 129.91186529285346 Q 241.84287852760525 126.42614519486938 243.86573872838255 124.15968412386457 Q 245.8885989291598 121.89322305285972 250.7596349699847 120.48370558153843 L 254.5291975886596 119.41300222650571 L 254.2884390761556 118.45345006470112 Q 253.45315444093768 115.12439154415452 250.04576513167234 115.9793299354952 Q 247.4216837095944 116.63773076560821 244.27520408155743 119.11326170171833 L 241.28518322608625 115.57548342480311 Q 244.56838643966563 112.6493372767309 249.17032027689174 111.4946791045179 Q 253.57642714232105 110.38915532261177 256.40786782889137 111.71864696253775 Q 259.2393085154617 113.0481386024637 260.22199632160044 116.9646780384009 L 263.88250839946727 131.55378743726686 L 259.71139390019425 132.60034995080466 Z  M 255.40378973612303 122.8987223244898 L 253.11268522504292 123.55683891883041 Q 250.5278402562675 124.28865709863143 249.47115625693846 125.4696693115327 Q 248.41447225760936 126.65068152443396 248.85668177037184 128.41312427060566 Q 249.4905154053314 130.93929220678515 252.38875458792484 130.21210323024252 Q 254.46452048897152 129.69127869298893 255.40830197900925 128.18473078657908 Q 256.35208346904705 126.67818288016917 255.8558261269469 124.7003304650209 L 255.40378973612303 122.8987223244898 Z  M 279.24665536420395 106.07584495984369 Q 280.4847415265237 105.8913213240454 281.33026161325427 105.94901981425747 L 281.7221612601085 111.72864378275446 Q 280.9535415123051 111.63907141019541 279.8951775348382 111.79680935692622 Q 276.97968431389165 112.23133275735447 275.5754141599531 113.97157692657296 Q 274.1711440060146 115.71182109579144 274.57292934202707 118.40765386858445 L 276.2663801286277 129.77008977761582 L 270.17579497528044 130.67782701823657 L 266.8484171555626 108.35233783318014 L 271.4612865667861 107.66483848044777 L 272.9194207737937 111.28510678537023 L 273.2189577485485 111.24046397025771 Q 273.9775909529934 109.20860383607109 275.57372831278207 107.79698615701403 Q 277.16986567257084 106.385368477957 279.24665536420395 106.07584495984369 Z  M 294.6338386228535 116.00959534650846 L 297.290589102885 112.55525498687291 L 303.55297342005326 105.63872595034607 L 310.497992033758 105.58128294745273 L 301.615060614916 115.44709318271859 L 311.2297849983069 128.148084834208 L 304.12325432381823 128.20686372088954 L 297.54674945776117 119.11501260148083 L 294.9195229371463 121.25673349630068 L 294.9776338819337 128.28250814039734 L 288.81998656455016 128.33343870982316 L 288.5601571677418 96.91934288736783 L 294.71780448512544 96.8684123179421 L 294.83369240375333 110.87958359093949 L 294.5530825924616 116.01026328840257 L 294.6338386228535 116.00959534650846 Z  M 325.5867407888897 111.15077805911778 Q 323.63789166457207 110.9575929714783 322.4103907910948 112.08366556246142 Q 321.1828899176175 113.20973815344453 320.79710942382565 115.46411413640104 L 329.39615504452615 116.31651844062475 Q 329.5810232574605 114.04222646925183 328.5583065853339 112.69309480800459 Q 327.53558991320733 111.34396314675729 325.5867407888897 111.15077805911778 Z  M 324.57457748774806 130.16235366608393 Q 319.1499459045959 129.62462197883997 316.39282746296703 126.32830597013347 Q 313.63570902133824 123.03198996142697 314.17941550510704 117.54708469401751 Q 314.73905477960915 111.90144960192211 317.8675827478492 109.09726572801068 Q 320.9961107160894 106.29308185409926 325.978735281355 106.78699836682699 Q 330.7403563376775 107.25900729229667 333.1235326013744 110.23421413096983 Q 335.50670886507123 113.20942096964293 335.03270834075994 117.99113325405116 L 334.7379517121966 120.964635010742 L 320.25217626237173 119.52869224591652 Q 320.09372455338666 122.1505098912721 321.3949062601206 123.76056465813016 Q 322.69608796685446 125.3706194249882 325.3079476180018 125.62952727440194 Q 327.3371616546625 125.83067875740801 329.18719575805443 125.5880068633553 Q 331.03722986144635 125.34533496930251 333.09778376056533 124.6163151638392 L 332.62776643393727 129.35784499207597 Q 330.94080423341154 130.00216620817432 329.07366630019646 130.21270966125684 Q 327.2065283669812 130.4232531143393 324.57457748774806 130.16235366608393 Z  M 348.97022337902445 129.98732214139244 Q 350.5368391533994 130.38039726384798 352.9020716035985 130.24530803399665 L 351.7867209436309 134.6905802937854 Q 349.3037080745814 135.12916580045027 346.05298034275353 134.31353492135506 Q 342.46934675887104 133.4143755787381 341.2886846547064 131.1927039305542 Q 340.1080225505418 128.97103228237035 341.0170087712202 125.34823330412843 L 343.6653524087642 114.79315952427777 L 340.80627862053007 114.07579742579648 L 341.44011225548957 111.54962948961699 L 345.23117616280757 110.37765213444561 L 348.1140251258637 106.18851823474083 L 351.9326510759024 107.1466388457261 L 350.76325258659733 111.80732077449133 L 356.8926368038389 113.34522719109853 L 355.76745926581003 117.82966484524658 L 349.6380750485684 116.29175842863944 L 346.98973141102437 126.8468322084901 Q 346.6703578740293 128.11970752516967 347.2328097111363 128.90611166236025 Q 347.79526154824333 129.69251579955085 348.97022337902445 129.98732214139244 Z " fill-rule="evenodd" fill="rgb(0,0,0)" fill-opacity="100" stroke-width="1" stroke="rgb(0,0,0)" stroke-opacity="0" stroke-linejoin="miter" stroke-linecap="square"/><path d=" M 508.93592730467486 321.20221752933406 Q 507.92644239649195 321.20221752933406 506.684775959427 321.8079084742438 Q 505.443109522362 322.41359941915357 504.21153793437884 323.6451710071367 L 504.21153793437884 319.78893865787796 Q 506.210318052581 317.6084512562029 509.2589624752934 317.6084512562029 Q 510.59148255409485 317.6084512562029 511.7826747457507 317.87091733233046 Q 512.9738669374065 318.13338340845803 514.7505603758084 318.8804022405134 Q 517.3954108352476 319.99083563951456 519.1922939718132 319.99083563951456 Q 520.2421582763234 319.99083563951456 521.504014411552 319.36495499644116 Q 522.7658705467807 318.73907435336776 523.9368730402729 317.5680718598756 L 523.9368730402729 321.40411451097066 Q 521.8169547330888 323.6451710071367 518.8894484993583 323.6451710071367 Q 517.5771181187206 323.6451710071367 516.315261983492 323.3322306856 Q 515.0534058482633 323.0192903640633 513.357471202516 322.31265092833524 Q 510.7933795357314 321.20221752933406 508.93592730467486 321.20221752933406 Z  M 547.7001477788986 335.1734886585855 L 527.6921568987133 335.1734886585855 L 527.6921568987133 331.5797223854544 L 535.3036731064125 323.92782678142794 Q 538.6753526997434 320.47538839544234 539.7756912496627 319.0318249767408 Q 540.876029799582 317.5882615580392 541.3807722536735 316.3163105737288 Q 541.885514707765 315.0443595894183 541.885514707765 313.5907013216349 Q 541.885514707765 311.5919212034328 540.6842276670274 310.44110840810424 Q 539.4829406262896 309.2902956127757 537.3630223191055 309.2902956127757 Q 535.6670876733583 309.2902956127757 534.0821963675111 309.91617625584917 Q 532.497305061664 310.54205689892257 530.4177661508072 312.1774224501789 L 527.8536744840226 309.0480192348118 Q 530.3168176599888 306.968480323955 532.6386329488096 306.10032330291773 Q 534.9604482376302 305.23216628188044 537.5851089989058 305.23216628188044 Q 541.7038074242921 305.23216628188044 544.187140298422 307.38236913631005 Q 546.670473172552 309.53257199073965 546.670473172552 313.1667176601981 Q 546.670473172552 315.16549777840027 545.9537388877421 316.9623809149658 Q 545.2370046029323 318.75926405153143 543.7530617879033 320.6671905279971 Q 542.2691189728745 322.5751170044628 538.816680586889 325.82565840881176 L 533.6884972533197 330.7923241570717 L 533.6884972533197 330.99422113870827 L 547.7001477788986 330.99422113870827 L 547.7001477788986 335.1734886585855 Z  M 561.3080043412042 316.7402942351656 Q 565.7699276353726 316.7402942351656 568.3743986984845 319.1024889203136 Q 570.9788697615965 321.46468360546163 570.9788697615965 325.5430026345206 Q 570.9788697615965 330.2673920048166 568.0210789806205 332.9223373133376 Q 565.0632881996446 335.57728262185867 559.6120696954569 335.57728262185867 Q 554.6655936453606 335.57728262185867 551.8390359024485 333.9822964669297 L 551.8390359024485 329.6818907580705 Q 553.4744014537048 330.61061687359876 555.5943197608889 331.1153593276902 Q 557.714238068073 331.62010178178167 559.5313109028023 331.62010178178167 Q 562.7414729108239 331.62010178178167 564.4172178584075 330.18663321216195 Q 566.0929628059912 328.75316464254223 566.0929628059912 325.98717599412106 Q 566.0929628059912 320.6974750752426 559.3496036193293 320.6974750752426 Q 558.4006878056374 320.6974750752426 557.007598632345 320.88927720779736 Q 555.6145094590526 321.0810793403521 554.5646451545423 321.323355718316 L 552.4447268473582 320.0715944321692 L 553.575349944523 305.65614994331725 L 568.9195205489033 305.65614994331725 L 568.9195205489033 309.8757968595218 L 557.7546174644003 309.8757968595218 L 557.0883574249996 317.1844675947661 Q 557.7949968607277 317.06332940578415 558.8145766179923 316.90181182047485 Q 559.8341563752571 316.7402942351656 561.3080043412042 316.7402942351656 Z  M 594.9036620855313 320.41481930095136 Q 594.9036620855313 328.10709430130515 592.4304240604832 331.84218846158194 Q 589.9571860354351 335.57728262185867 584.8693820981932 335.57728262185867 Q 579.9430957462606 335.57728262185867 577.3991937776398 331.7210502726 Q 574.8552918090188 327.86481792334126 574.8552918090188 320.41481930095136 Q 574.8552918090188 312.6014061116157 577.3285298340669 308.8965964985844 Q 579.801767859115 305.19178688555314 584.8693820981932 305.19178688555314 Q 589.8158581482895 305.19178688555314 592.3597601169104 309.0682089329755 Q 594.9036620855313 312.94463098039785 594.9036620855313 320.41481930095136 Z  M 579.6604399719695 320.41481930095136 Q 579.6604399719695 326.45153905188516 580.9021064090344 329.0358204168334 Q 582.1437728460994 331.62010178178167 584.8693820981932 331.62010178178167 Q 587.594991350287 331.62010178178167 588.8568474855157 328.9954410205061 Q 590.1187036207443 326.37078025923057 590.1187036207443 320.41481930095136 Q 590.1187036207443 314.4790480408359 588.8568474855157 311.8241027323148 Q 587.594991350287 309.16915742379376 584.8693820981932 309.16915742379376 Q 582.1437728460994 309.16915742379376 580.9021064090344 311.7736284869057 Q 579.6604399719695 314.3780995500176 579.6604399719695 320.41481930095136 Z  M 624.0777759320174 335.1734886585855 L 615.5173439106263 310.5218672007589 L 615.3558263253171 310.5218672007589 Q 615.6990511940993 316.01346510127394 615.6990511940993 320.81861326422455 L 615.6990511940993 335.1734886585855 L 611.3178866925855 335.1734886585855 L 611.3178866925855 305.65614994331725 L 618.1218149737383 305.65614994331725 L 626.3188324281834 329.13676890765174 L 626.4399706171654 329.13676890765174 L 634.8792644495745 305.65614994331725 L 641.703382428891 305.65614994331725 L 641.703382428891 335.1734886585855 L 637.0597518512496 335.1734886585855 L 637.0597518512496 320.57633688626066 Q 637.0597518512496 318.3756597864219 637.1707951911498 314.8424626077817 Q 637.2818385310499 311.30926542914153 637.3625973237044 310.5622465970862 L 637.2010797383953 310.5622465970862 L 628.3378022445493 335.1734886585855 L 624.0777759320174 335.1734886585855 Z " fill-rule="evenodd" fill="rgb(0,0,0)" stroke-width="1" stroke="rgba(0,0,0,0)" stroke-linejoin="miter" stroke-linecap="square"/><path d=" M 162.05989888005618 321.20221752933406 Q 161.05041397187327 321.20221752933406 159.8087475348083 321.8079084742438 Q 158.5670810977433 322.41359941915357 157.33550950976016 323.6451710071367 L 157.33550950976016 319.78893865787796 Q 159.33428962796233 317.6084512562029 162.38293405067472 317.6084512562029 Q 163.71545412947614 317.6084512562029 164.90664632113197 317.87091733233046 Q 166.0978385127878 318.13338340845803 167.87453195118974 318.8804022405134 Q 170.51938241062896 319.99083563951456 172.31626554719452 319.99083563951456 Q 173.36612985170476 319.99083563951456 174.6279859869334 319.36495499644116 Q 175.88984212216204 318.73907435336776 177.0608446156542 317.5680718598756 L 177.0608446156542 321.40411451097066 Q 174.9409263084701 323.6451710071367 172.01342007473966 323.6451710071367 Q 170.70108969410188 323.6451710071367 169.43923355887324 323.3322306856 Q 168.1773774236446 323.0192903640633 166.4814427778973 322.31265092833524 Q 163.91735111111274 321.20221752933406 162.05989888005618 321.20221752933406 Z  M 200.82411935427987 335.1734886585855 L 180.81612847409463 335.1734886585855 L 180.81612847409463 331.5797223854544 L 188.42764468179377 323.92782678142794 Q 191.79932427512466 320.47538839544234 192.89966282504403 319.0318249767408 Q 194.0000013749634 317.5882615580392 194.50474382905486 316.3163105737288 Q 195.00948628314632 315.0443595894183 195.00948628314632 313.5907013216349 Q 195.00948628314632 311.5919212034328 193.80819924240865 310.44110840810424 Q 192.60691220167098 309.2902956127757 190.4869938944869 309.2902956127757 Q 188.7910592487396 309.2902956127757 187.20616794289242 309.91617625584917 Q 185.62127663704527 310.54205689892257 183.54173772618847 312.1774224501789 L 180.9776460594039 309.0480192348118 Q 183.44078923537018 306.968480323955 185.76260452419086 306.10032330291773 Q 188.08441981301155 305.23216628188044 190.70908057428713 305.23216628188044 Q 194.8277789996734 305.23216628188044 197.31111187380333 307.38236913631005 Q 199.7944447479333 309.53257199073965 199.7944447479333 313.1667176601981 Q 199.7944447479333 315.16549777840027 199.07771046312342 316.9623809149658 Q 198.36097617831356 318.75926405153143 196.87703336328468 320.6671905279971 Q 195.39309054825583 322.5751170044628 191.94065216227028 325.82565840881176 L 186.8124688287011 330.7923241570717 L 186.8124688287011 330.99422113870827 L 200.82411935427987 330.99422113870827 L 200.82411935427987 335.1734886585855 Z  M 224.42587650759629 320.41481930095136 Q 224.42587650759629 328.10709430130515 221.95263848254814 331.84218846158194 Q 219.47940045750002 335.57728262185867 214.39159652025816 335.57728262185867 Q 209.46531016832557 335.57728262185867 206.92140819970464 331.7210502726 Q 204.37750623108371 327.86481792334126 204.37750623108371 320.41481930095136 Q 204.37750623108371 312.6014061116157 206.85074425613183 308.8965964985844 Q 209.32398228117995 305.19178688555314 214.39159652025816 305.19178688555314 Q 219.3380725703544 305.19178688555314 221.88197453897533 309.0682089329755 Q 224.42587650759629 312.94463098039785 224.42587650759629 320.41481930095136 Z  M 209.18265439403436 320.41481930095136 Q 209.18265439403436 326.45153905188516 210.42432083109932 329.0358204168334 Q 211.66598726816432 331.62010178178167 214.39159652025816 331.62010178178167 Q 217.117205772352 331.62010178178167 218.37906190758065 328.9954410205061 Q 219.6409180428093 326.37078025923057 219.6409180428093 320.41481930095136 Q 219.6409180428093 314.4790480408359 218.37906190758065 311.8241027323148 Q 217.117205772352 309.16915742379376 214.39159652025816 309.16915742379376 Q 211.66598726816432 309.16915742379376 210.42432083109932 311.7736284869057 Q 209.18265439403436 314.3780995500176 209.18265439403436 320.41481930095136 Z  M 249.07749796542288 328.73297494437855 L 245.10012742718223 328.73297494437855 L 245.10012742718223 335.1734886585855 L 240.4766865477045 335.1734886585855 L 240.4766865477045 328.73297494437855 L 226.98996817438086 328.73297494437855 L 226.98996817438086 325.0786395767564 L 240.4766865477045 305.57539115066265 L 245.10012742718223 305.57539115066265 L 245.10012742718223 324.79598380246523 L 249.07749796542288 324.79598380246523 L 249.07749796542288 328.73297494437855 Z  M 240.4766865477045 324.79598380246523 L 240.4766865477045 317.3863645764027 Q 240.4766865477045 313.4291837363257 240.6785835293411 310.9054714658684 L 240.51706594403183 310.9054714658684 Q 239.9517543954494 312.23799154466985 238.74037250562992 314.1358231720537 L 231.411512072222 324.79598380246523 L 240.4766865477045 324.79598380246523 Z  M 277.20174750739875 335.1734886585855 L 268.64131548600767 310.5218672007589 L 268.4797979006984 310.5218672007589 Q 268.8230227694806 316.01346510127394 268.8230227694806 320.81861326422455 L 268.8230227694806 335.1734886585855 L 264.4418582679668 335.1734886585855 L 264.4418582679668 305.65614994331725 L 271.24578654911954 305.65614994331725 L 279.4428040035648 329.13676890765174 L 279.56394219254673 329.13676890765174 L 288.00323602495587 305.65614994331725 L 294.8273540042723 305.65614994331725 L 294.8273540042723 335.1734886585855 L 290.18372342663093 335.1734886585855 L 290.18372342663093 320.57633688626066 Q 290.18372342663093 318.3756597864219 290.29476676653104 314.8424626077817 Q 290.4058101064312 311.30926542914153 290.4865688990858 310.5622465970862 L 290.3250513137765 310.5622465970862 L 281.4617738199306 335.1734886585855 L 277.20174750739875 335.1734886585855 Z " fill-rule="evenodd" fill="rgb(0,0,0)" stroke-width="1" stroke="rgba(0,0,0,0)" stroke-linejoin="miter" stroke-linecap="square"/></svg>