<?xml version="1.0" standalone="no"?><!-- Generator: Gravit.io --><svg xmlns="http://www.w3.org/2000/svg" xmlns:xlink="http://www.w3.org/1999/xlink" style="isolation:isolate" width="800" height="600"><g style="opacity:0.59;"><g opacity="0.59"><path d=" M 192.6620578662358 349.76026261674957 C 192.6620578662358 275.2517336339104 253.1535288833966 214.7602626167496 327.66205786623584 214.76026261674957 C 402.170586849075 214.76026261674957 462.66205786623584 275.25173363391036 462.66205786623584 349.7602626167495 C 462.66205786623584 424.2687915995887 402.170586849075 484.76026261674957 327.66205786623584 484.76026261674957 C 253.15352888339666 484.76026261674957 192.6620578662358 424.2687915995888 192.6620578662358 349.76026261674957 Z " fill="rgb(9,22,142)" fill-opacity="100" stroke-width="5" stroke="rgb(255,255,255)" stroke-opacity="100" stroke-linejoin="miter" stroke-linecap="square"/></g></g><g style="opacity:0.59;"><g opacity="0.59"><path d=" M 347.66205786623584 349.76026261674957 C 347.66205786623584 275.2517336339104 408.1535288833966 214.7602626167496 482.66205786623584 214.76026261674957 C 557.170586849075 214.76026261674957 617.6620578662358 275.25173363391036 617.6620578662358 349.7602626167495 C 617.6620578662358 424.2687915995887 557.170586849075 484.76026261674957 482.66205786623584 484.76026261674957 C 408.1535288833967 484.76026261674957 347.66205786623584 424.2687915995888 347.66205786623584 349.76026261674957 Z " fill="rgb(0,117,180)" fill-opacity="100" stroke-width="4" stroke="rgb(255,255,255)" stroke-opacity="100" stroke-linejoin="miter" stroke-linecap="square"/></g></g><path d=" M 443.08393333147296 219.16040175331773 L 436.84826178031665 198.67230458553894 L 441.1925231496815 197.3501033674415 L 447.4281947008378 217.8382005352203 L 443.08393333147296 219.16040175331773 Z  M 461.5849090666891 214.9236975341488 L 454.00123679935723 199.0689223987485 L 453.8708497049263 199.08841393594665 Q 454.90411557309744 204.11787436306702 455.1575055566734 205.81290659066994 L 456.6301994783113 215.66437594767842 L 452.617174460824 216.26428214811034 L 449.4508825293026 195.0836230305421 L 455.56458851262255 194.16968650858448 L 462.99852998602853 209.61731980895033 L 463.08545471564923 209.60432545081824 L 465.98106861216536 192.61252925908795 L 472.0947745954853 191.69859273713033 L 475.26106652700673 212.87925185469857 L 471.07419205027816 213.50514677139466 L 469.57550941237605 203.47982795514486 Q 469.4693888209639 202.76994266324277 469.3525135166267 201.839496957756 Q 469.2356382122895 200.90905125226925 468.8117471974542 196.88452497345455 L 468.6813601030233 196.9040165106527 L 465.69934626873385 214.30863124922945 L 461.5849090666891 214.9236975341488 Z  M 502.7619886899331 214.61402264131814 L 498.3161344260766 214.17200527358304 L 499.2624863642111 204.65350417752305 Q 499.43784407403393 202.88973904333733 498.9351717889906 201.94916236675834 Q 498.43249950394727 201.00858569017936 497.16433779589636 200.88250204757952 Q 495.45887894713826 200.71294128684178 494.5616862598937 201.88971684815886 Q 493.664493572649 203.06649240947587 493.37899383021033 205.93807696678647 L 492.61669502552616 213.60535350051936 L 488.17084076166964 213.16333613278425 L 489.7910880309413 196.8667293557627 L 493.1874291571005 197.20440163996687 L 493.57782765294314 199.3482700721263 L 493.8256293660105 199.37290710573774 Q 494.5931663469586 198.31572678846277 495.8952167335955 197.80483110249466 Q 497.1972671202325 197.29393541652655 498.8006899694923 197.45335151636542 Q 502.45940938007584 197.81711007145236 503.5190493183534 200.3366498911274 L 503.9126167449899 200.3757792974515 Q 504.6816029632091 199.3040224088196 506.0193701596028 198.8040381017081 Q 507.35713735599643 198.3040537945966 508.9605602052561 198.4634698944355 Q 511.7301087630684 198.73882497597538 513.0100238364187 200.3013413172219 Q 514.2899389097689 201.8638576584684 513.9783528964475 204.9978205002033 L 512.921858925697 215.6241410193882 L 508.46142809048365 215.18067441438183 L 509.40778002861816 205.66217331832183 Q 509.5831377384409 203.89840818413614 509.08046545339755 202.95783150755716 Q 508.5777931683542 202.01725483097817 507.3096314603033 201.8911711883783 Q 505.67705546832985 201.7288566139969 504.75211677632046 202.81454965399436 Q 503.8271780843112 203.9002426939918 503.5750107991115 206.43656611009354 L 502.7619886899331 214.61402264131814 Z  M 527.2034093340073 220.67098874119904 L 527.0249034125825 218.28925454761452 L 526.9127934417602 218.25513322585715 Q 525.4200139462874 219.28604890016325 524.1179499227974 219.46395342298982 Q 522.8158858993074 219.6418579458164 520.980085127092 219.08312130203973 Q 518.7238719642928 218.39642970167301 517.8199956268694 216.71263725439695 Q 516.9161192894459 215.0288448071209 517.6411973767896 212.64650792714662 Q 518.4003967858907 210.15206107635 520.5055146678751 209.49891257938808 Q 522.6106325498595 208.84576408242614 526.1664693713868 209.790196835388 L 528.910727155146 210.5335564098871 L 529.1197202509098 209.84688283860038 Q 529.8447983382536 207.4645459586261 527.4064064728681 206.72240721040367 Q 525.5285644615943 206.150875070968 522.6465979889462 206.51399362078388 L 522.1098336425662 203.19638018492256 Q 525.2452683758412 202.60416869068695 528.5384987687469 203.6064825173092 Q 531.6915916981246 204.56614469173476 532.9552550689317 206.45131166066847 Q 534.218918439739 208.3364786296022 533.3658853958051 211.13922790016017 L 530.1883373071515 221.5794689329886 L 527.2034093340073 220.67098874119904 Z  M 528.151527746045 213.02800326068368 L 526.480845015537 212.5807687501739 Q 524.5999560897372 212.06955676136903 523.5013953071405 212.40892586161328 Q 522.4028345245437 212.74829496185754 522.0189696547735 214.00953213360862 Q 521.4687633414362 215.81730541311853 523.542797801649 216.44854986562956 Q 525.0282549150448 216.9006573789145 526.1783028868468 216.31665684284332 Q 527.3283508586487 215.73265630677213 527.7591325458353 214.31726792514036 L 528.151527746045 213.02800326068368 Z  M 549.2280314953254 211.57387676122693 Q 550.0669769695653 211.9217322017654 550.5712683482586 212.27354804580148 L 548.6554231562986 216.0144791829017 Q 548.2108678636939 215.67157424673525 547.4937047970051 215.37421395079105 Q 545.5181235189563 214.55507049403914 543.9945232900703 215.1126623031376 Q 542.4709230611842 215.67025411223602 541.7134958922697 217.49699022550024 L 538.521080639586 225.19634465844348 L 534.3940101614705 223.48512031385903 L 540.6666292344064 208.35703902030798 L 543.7923776948807 209.6530810648949 L 543.3465022677768 212.44945596781952 L 543.5494729470284 212.5336145421433 Q 544.7804983675298 211.55341467648935 546.3006332433555 211.27189599453556 Q 547.8207681191811 210.99037731258173 549.2280314953254 211.57387676122693 Z  M 555.0596330575955 223.68639147789915 L 558.0103675708561 222.55057428493228 L 564.502538711915 220.6325936689381 L 568.8259754651272 223.22103828296414 L 559.5963197784155 225.9756819361047 L 560.7528699821493 237.47537053491158 L 556.3288881881648 234.82672953451285 L 555.6905706754306 226.71046204927592 L 553.2540680616413 227.04439988256044 L 550.6355252544289 231.4181091561588 L 546.8022455749821 229.12312192569968 L 558.510442724472 209.5671114954725 L 562.3437224039188 211.86209872593162 L 557.1216858860872 220.58438101293527 L 555.0093605372093 223.6562932847128 L 555.0596330575955 223.68639147789915 Z  M 576.4559017395021 232.7522820761609 Q 575.3569702178658 231.85155909963385 574.1627877771809 232.03758512923852 Q 572.9686053364962 232.2236111588432 571.828675970304 233.42952330454116 L 576.677569694638 237.40384736591824 Q 577.7042071513832 236.10507718140303 577.629520206261 234.8790411170455 Q 577.5548332611386 233.65300505268794 576.4559017395021 232.7522820761609 Z  M 568.1958296935422 243.82366951298766 Q 565.1369481384717 241.3165024649227 564.7984958932531 238.21701082413978 Q 564.4600436480343 235.11751918335688 566.9950681077445 232.02465005545224 Q 569.6043789985084 228.84114739998995 572.6215012220839 228.40677203535958 Q 575.6386234456594 227.9723966707292 578.4482627999464 230.27527603339632 Q 581.1332810538416 232.47601155336446 581.3751507345104 235.23117844328704 Q 581.6170204151789 237.9863453332096 579.4069990913291 240.68269277804956 L 578.0327001168342 242.359413037866 L 569.8643534457015 235.66434843914436 Q 568.7138448958011 237.18357228136472 568.8516829604542 238.6791810998122 Q 568.9895210251074 240.1747899182597 570.4623158479191 241.3819444228836 Q 571.6065641333342 242.31981061493752 572.821193199874 242.9176199544537 Q 574.0358222664137 243.51542929396987 575.573229957554 243.90429529092216 L 573.3817802414676 246.5779843538727 Q 572.1040128106223 246.28828768112317 570.8919832589605 245.66419875130822 Q 569.6799537072988 245.04010982149327 568.1958296935422 243.82366951298766 Z  M 583.3965214243573 252.84333590704142 Q 584.2319841357388 253.66509808280526 585.7611528835695 254.45005019264522 L 583.4294027098396 256.8206756361901 Q 581.7149949590715 256.18227201423235 579.981409832955 254.4771154995224 Q 578.0702888806699 252.59733452246263 578.1484371913924 250.7736164914743 Q 578.226585502115 248.94989846048597 580.1269105335688 247.0178909404163 L 585.6635331927777 241.38896092248362 L 584.1388137445064 239.88924495171463 L 585.4639052529257 238.542061329612 L 588.2661237209256 239.20254694170467 L 591.6093311219486 237.64187033646954 L 593.6457714809409 239.6449156398939 L 591.2010290080435 242.13041720625378 L 594.4697768663235 245.3455617189298 L 592.1174826381995 247.73707373025925 L 588.8487347799195 244.52192921758325 L 583.3121121207106 250.15085923551595 Q 582.6444303529025 250.82967268851337 582.7071773718618 251.52834348186596 Q 582.7699243908212 252.22701427521855 583.3965214243573 252.84333590704142 Z " fill-rule="evenodd" fill="rgb(0,0,0)" fill-opacity="100" stroke-width="1" stroke="rgb(0,0,0)" stroke-opacity="0" stroke-linejoin="miter" stroke-linecap="square"/><path d=" M 206.96935346383188 284.52303805246953 L 201.70643842928365 295.6778081487947 L 182.33794213376416 286.5395875068594 L 187.6008571683124 275.3848174105342 L 190.96583532088553 276.9724426109799 L 187.64057309003084 284.0203496077079 L 191.89316358993628 286.02675783346797 L 194.9871575829308 279.4690248195951 L 198.35213573550394 281.05665002004076 L 195.25814174250942 287.61438303391367 L 200.25261718943887 289.9708188629216 L 203.57787942029358 282.92291186619354 L 206.96935346383188 284.52303805246953 Z  M 217.05929658898802 268.67555730178157 L 214.58264110339195 272.39404854077856 L 206.62141231957216 267.09156974702694 Q 205.14620759852744 266.10902773470855 204.0797378702456 266.1115235979899 Q 203.01326814196378 266.11401946127125 202.30681231492488 267.17470384747696 Q 201.3567510302864 268.6011414703053 201.9748740001787 269.9456411667909 Q 202.59299697007097 271.29014086327646 204.9947765572264 272.88981670151395 L 211.40764997267698 277.16103239142717 L 208.93099448708088 280.87952363042416 L 195.30059053560993 271.80116024387854 L 197.19259292296695 268.9604767727759 L 199.26894414292107 269.62180003061644 L 199.40698723556085 269.414539863197 Q 198.83362878129546 268.240656000424 198.99350205139152 266.851127249807 Q 199.15337532148757 265.46159849919 200.04659533268617 264.1205032982403 Q 202.08476099460293 261.06036788516406 204.80690821235228 261.3070097847281 L 205.02615312419195 260.9778318717677 Q 204.44060289537245 259.79582782707473 204.62687250754553 258.37987973103253 Q 204.8131421197186 256.96393163499033 205.7063621309172 255.6228364340406 Q 207.24919669571474 253.30639926876378 209.22961245193713 252.9094189869389 Q 211.2100282081595 252.51243870511402 213.83125973728855 254.25827781791125 L 222.71906338721905 260.1778904375819 L 220.234287719703 263.90857345113295 L 212.2730589358832 258.6060946573814 Q 210.79785421483848 257.6235526450629 209.73138448655666 257.6260485083443 Q 208.66491475827482 257.62854437162565 207.95845893123592 258.68922875783136 Q 207.04899855619738 260.05470750788925 207.57367042396518 261.38096554924016 Q 208.09834229173296 262.707223590591 210.21971106414438 264.1201352446688 L 217.05929658898802 268.67555730178157 Z  M 233.74940380110894 249.82281393159838 L 231.5559287954146 248.8777268814978 L 231.47375666618345 248.96127717374068 Q 231.69589721577856 250.761785803506 231.25041064412474 251.9981362615013 Q 230.80492407247093 253.23448671949657 229.45935545631093 254.60262275497365 Q 227.8056413555341 256.2840723863616 225.8946977505059 256.3051431542616 Q 223.98375414547775 256.32621392216174 222.20831043531663 254.58005617599986 Q 220.34931643291264 252.7517263006069 220.74562023225698 250.58353176257316 Q 221.1419240316013 248.41533722453943 223.62608050745524 245.70150316003418 L 225.55609192212836 243.61377947622105 L 225.04434638214073 243.1104751846803 Q 223.26890267197965 241.36431743851847 221.48165886120222 243.18153629480102 Q 220.10527569658055 244.5810036898692 219.09207798168498 247.3033218603296 L 215.90323482488773 246.2422119721939 Q 216.8308150030228 243.1891380402913 219.24462129918768 240.73484820565685 Q 221.55571243381365 238.38499623632597 223.81178545225606 238.13835043576435 Q 226.06785847069847 237.89170463520276 228.15661577677037 239.9460078659814 L 235.9372367418882 247.5982874006318 L 233.74940380110894 249.82281393159838 Z  M 227.41508592453235 245.44210935161405 L 226.2448221644944 246.71556222681204 Q 224.92048566214802 248.1456718999654 224.7123637194808 249.27646473521008 Q 224.50424177681356 250.40725757045476 225.4441825645459 251.33169402430514 Q 226.79143102696227 252.65671960815735 228.31161541773847 251.11103920166414 Q 229.40039613005115 250.00399782944606 229.41556642747142 248.71425489938076 Q 229.43073672489172 247.42451196931543 228.37591428532542 246.38708883777224 L 227.41508592453235 245.44210935161405 Z  M 226.4006922937207 228.95948776685248 Q 225.0179530451385 227.27074564396906 226.89937044378715 225.7302441992399 Q 228.78078784243576 224.18974275451075 230.16352709101795 225.87848487739416 Q 230.82241626316116 226.68318749970774 230.71862701631105 227.5159995310504 Q 230.61483776946096 228.34881156239305 229.67412907013664 229.1190622847576 Q 227.79271167148804 230.6595637294868 226.4006922937207 228.95948776685248 Z  M 243.06199509796286 241.95511921549547 L 239.6051739739398 244.78555861695568 L 229.22998954498073 232.11432577545474 L 232.6868106690038 229.2838863739945 L 243.06199509796286 241.95511921549547 Z  M 250.40814883645285 236.49228009595004 L 246.81589929512467 239.14873312991432 L 233.26363398086758 220.82237153546626 L 236.85588352219577 218.16591850150198 L 250.40814883645285 236.49228009595004 Z  M 274.2112091445284 223.50664623776015 L 270.1705857723441 225.413046576878 L 266.08901389875734 216.7621381767589 Q 265.33270425602535 215.15913677336775 264.4180076426152 214.61078103473537 Q 263.50331102920507 214.062425296103 262.35073977222135 214.60621817972023 Q 260.8007301507605 215.33752585079168 260.6361314308863 216.80812528679525 Q 260.47153271101206 218.27872472279884 261.70287981529475 220.88856998286542 L 264.99063908865867 227.85698930669798 L 260.95001571647447 229.76338964581583 L 253.96196463734728 214.952186596301 L 257.04873593478646 213.49582174707325 L 258.485722186437 215.1340077415602 L 258.7109372596407 215.02774936200282 Q 258.82580685189055 213.72638537866348 259.6799857761006 212.6188078523847 Q 260.5341647003105 211.51123032610587 261.9914387033933 210.82367610544043 Q 265.31667301951876 209.25480238374016 267.5208210055507 210.87117157343437 L 267.87851553358007 210.70240826472556 Q 267.98713463291483 209.38779633590366 268.8775586672888 208.2712165500783 Q 269.76798270166273 207.15463676425293 271.22525670474556 206.46708254358748 Q 273.7423663464342 205.27948888971076 275.64346409021107 205.96174051503527 Q 277.54456183398804 206.64399214035979 278.88841781074325 209.49230041911264 L 283.44502714588066 219.1500526759072 L 279.39115582821387 221.0627035079402 L 275.3095839546271 212.4117951078211 Q 274.55327431189505 210.80879370442995 273.63857769848494 210.26043796579756 Q 272.7238810850748 209.71208222716518 271.5713098280911 210.2558751107824 Q 270.0875399340431 210.95593031727816 269.8523183929716 212.36266831267415 Q 269.6170968519001 213.76940630807016 270.7046826191346 216.0745488220376 L 274.2112091445284 223.50664623776015 Z  M 298.214977670435 215.92495692238953 L 296.834839250669 213.97566472388277 L 296.72117497955696 214.00418390389933 Q 295.97295142780433 215.6568602987923 294.948680322178 216.48020071604878 Q 293.9244092165517 217.30354113330523 292.0631567770919 217.77054270607644 Q 289.77566332096194 218.34449120390974 288.13344961603843 217.3671051050627 Q 286.4912359111149 216.38971900621567 285.885203335763 213.97435324508467 Q 285.25065158039445 211.44532321284163 286.7183179606508 209.80091461021289 Q 288.185984340907 208.15650600758414 291.7201167695289 207.13384442956345 L 294.45508595898355 206.35700611082777 L 294.28040598138216 205.6608124502665 Q 293.6743734060302 203.2454466891355 291.2021755093432 203.8657388544957 Q 289.2982989682164 204.34343511977315 287.015401531974 206.13953231265734 L 284.84602122375793 203.57273197923124 Q 287.228117116627 201.44969533854206 290.56700508054337 200.61194442555555 Q 293.76381270556965 199.80984248758972 295.8181367274533 200.77444210846386 Q 297.8724607493368 201.739041729338 298.58544024975095 204.5806485071392 L 301.2412888887933 215.16563375444855 L 298.214977670435 215.92495692238953 Z  M 295.0896377143521 208.8860361430708 L 293.4273493054577 209.36352618387113 Q 291.5519403882282 209.8944896872025 290.78527367553386 210.75136151595333 Q 290.0186069628396 211.60823334470416 290.3394477380259 212.88695639471467 Q 290.79931951579306 214.71979276639644 292.9021085313659 214.19218793609005 Q 294.4081601236005 213.81430880087058 295.09291152792605 212.72124774225978 Q 295.7776629322517 211.62818668364895 295.41760828454255 210.19317526085936 L 295.0896377143521 208.8860361430708 Z  M 312.3885950411395 196.68036245500352 Q 313.2868763141603 196.54648314069414 313.90033512097693 196.5883457144119 L 314.18467406634807 200.78169520333216 Q 313.62700954626973 200.71670684686828 312.85912394191325 200.83115206716502 Q 310.74381642802564 201.14641625892585 309.724961989671 202.4090333491319 Q 308.70610755131634 203.67165043933792 308.9976189615062 205.6275854693025 L 310.2262855718618 213.87148941041244 L 305.80732124490476 214.53008926306353 L 303.39317489977725 198.33204953343096 L 306.739997062161 197.8332411204395 L 307.7979320359691 200.45989128469728 L 308.01525815040964 200.4275011280095 Q 308.5656770318934 198.9533049343314 309.72373883978935 197.92911957118503 Q 310.8818006476853 196.90493420803864 312.3885950411395 196.68036245500352 Z  M 323.5526149506146 203.8876976266401 L 325.4801942063506 201.3814348558112 L 330.0238057317641 196.36321504453784 L 335.0626958763585 196.32153783713858 L 328.61777210132584 203.47957969822437 L 335.593641085011 212.69465963090792 L 330.4375674486819 212.73730607568856 L 325.6660488396375 206.14080266080876 L 323.7598904031116 207.69470725194745 L 323.80205222920154 212.79218914240911 L 319.3344316068142 212.82914131757417 L 319.145914936136 190.03695217516503 L 323.6135355585234 190 L 323.69761690135806 200.16566790798967 L 323.49402320474724 203.88818224533077 L 323.5526149506146 203.8876976266401 Z  M 346.01018955858706 200.36243039474175 Q 344.5962211890211 200.22226684899283 343.7056199685088 201.03927777386 Q 342.81501874799665 201.85628869872716 342.5351194941187 203.49192908424226 L 348.77407271240975 204.11038266754682 Q 348.9082020312809 202.46029243195454 348.16617997971696 201.48144318622263 Q 347.424157928153 200.5025939404907 346.01018955858706 200.36243039474175 Z  M 345.2758244018431 214.15609262771437 Q 341.3400361566595 213.7659466756297 339.33963591070653 211.37433692285478 Q 337.3392356647537 208.98272717007987 337.73371657186146 205.0032079443942 Q 338.13975735903114 200.90707277070314 340.4096301445618 198.87252466193354 Q 342.67950293009255 196.83797655316397 346.29459731826114 197.19633283507875 Q 349.74934477792226 197.53879428190862 351.4784349439698 199.6974264255196 Q 353.2075251100172 201.85605856913057 352.8636186781796 205.3253830222924 L 352.6497608970369 207.48277806039306 L 342.13974858304664 206.44094386982624 Q 342.0247854995463 208.34317794995326 342.9688451260316 209.51133739605882 Q 343.91290475251697 210.67949684216435 345.8079139076053 210.86734489316808 Q 347.2801902511741 211.0132883789479 348.6224643513974 210.83722016612853 Q 349.96473845162075 210.66115195330912 351.45975312504254 210.1322187830345 L 351.1187366632204 213.572389249195 Q 349.8947777828571 214.03987018860448 348.54009416664474 214.19262792616516 Q 347.18541055043227 214.3453856637258 345.2758244018431 214.15609262771437 Z  M 362.9758460274138 214.02910022152832 Q 364.11248873853435 214.31429202169397 365.82855994667545 214.21627935581063 L 365.0193282137054 217.44150304861498 Q 363.2178025777532 217.75971446171826 360.85926895217824 217.16794147637455 Q 358.2591987504901 216.5155652334957 357.40258093969965 214.90365315733976 Q 356.5459631289092 213.29174108118386 357.2054691667922 210.66325481171776 L 359.12694892040815 203.00512454554362 L 357.0525759726132 202.48464951024135 L 357.5124477503804 200.6518131385596 L 360.2630169889445 199.8014964622288 L 362.3546397816656 196.76211144460564 L 365.12520639002173 197.45726645750935 L 364.2767607845291 200.83877852309274 L 368.72387539178783 201.95459144124078 L 367.90751386381373 205.2082312018231 L 363.46039925655487 204.0924182836751 L 361.53891950293894 211.75054854984924 Q 361.3072011653044 212.67407075263463 361.71528257968896 213.24463856201936 Q 362.12336399407343 213.81520637140412 362.9758460274138 214.02910022152832 Z " fill-rule="evenodd" fill="rgb(0,0,0)" fill-opacity="100" stroke-width="1" stroke="rgb(0,0,0)" stroke-opacity="0" stroke-linejoin="miter" stroke-linecap="square"/><path d=" M 479.03739370900735 352.76319230424957 Q 478.30497183400735 352.76319230424957 477.40409292775735 353.20264542924957 Q 476.50321402150735 353.64209855424957 475.60965933400735 354.53565324174957 L 475.60965933400735 351.73780167924957 Q 477.05985464650735 350.15577042924957 479.27176870900735 350.15577042924957 Q 480.23856558400735 350.15577042924957 481.10282339650735 350.34620011674957 Q 481.96708120900735 350.53662980424957 483.25614370900735 351.07862199174957 Q 485.17508902150735 351.88428605424957 486.47879995900735 351.88428605424957 Q 487.24051870900735 351.88428605424957 488.15604605275735 351.43018449174957 Q 489.07157339650735 350.97608292924957 489.92118277150735 350.12647355424957 L 489.92118277150735 352.90967667924957 Q 488.38309683400735 354.53565324174957 486.25907339650735 354.53565324174957 Q 485.30692495900735 354.53565324174957 484.39139761525735 354.30860246049957 Q 483.47587027150735 354.08155167924957 482.24540152150735 353.56885636674957 Q 480.38504995900735 352.76319230424957 479.03739370900735 352.76319230424957 Z  M 507.16239370900735 362.89991105424957 L 492.64579214650735 362.89991105424957 L 492.64579214650735 360.29248917924957 L 498.16825308400735 354.74073136674957 Q 500.61454214650735 352.23584855424957 501.41288199025735 351.18848527299957 Q 502.21122183400735 350.14112199174957 502.57743277150735 349.21827042924957 Q 502.94364370900735 348.29541886674957 502.94364370900735 347.24073136674957 Q 502.94364370900735 345.79053605424957 502.07206167775735 344.95557511674957 Q 501.20047964650735 344.12061417924957 499.66239370900735 344.12061417924957 Q 498.43192495900735 344.12061417924957 497.28202261525735 344.57471574174957 Q 496.13212027150735 345.02881730424957 494.62333120900735 346.21534074174957 L 492.76297964650735 343.94483292924957 Q 494.55008902150735 342.43604386674957 496.23465933400735 341.80616105424957 Q 497.91922964650735 341.17627824174957 499.82352652150735 341.17627824174957 Q 502.81180777150735 341.17627824174957 504.61356558400735 342.73633683549957 Q 506.41532339650735 344.29639542924957 506.41532339650735 346.93311417924957 Q 506.41532339650735 348.38330949174957 505.89530386525735 349.68702042924957 Q 505.37528433400735 350.99073136674957 504.29862417775735 352.37500871049957 Q 503.22196402150735 353.75928605424957 500.71708120900735 356.11768449174957 L 496.99637808400735 359.72120011674957 L 496.99637808400735 359.86768449174957 L 507.16239370900735 359.86768449174957 L 507.16239370900735 362.89991105424957 Z  M 517.0354405840073 349.52588761674957 Q 520.2727452715073 349.52588761674957 522.1623937090073 351.23975480424957 Q 524.0520421465073 352.95362199174957 524.0520421465073 355.91260636674957 Q 524.0520421465073 359.34034074174957 521.9060460527573 361.26661027299957 Q 519.7600499590073 363.19287980424957 515.8049718340073 363.19287980424957 Q 512.2161046465073 363.19287980424957 510.16532339650735 362.03565324174957 L 510.16532339650735 358.91553605424957 Q 511.35184683400735 359.58936417924957 512.8899327715073 359.95557511674957 Q 514.4280187090073 360.32178605424957 515.7463780840073 360.32178605424957 Q 518.0754796465073 360.32178605424957 519.2912999590073 359.28174699174957 Q 520.5071202715073 358.24170792924957 520.5071202715073 356.23487199174957 Q 520.5071202715073 352.39698136674957 515.6145421465073 352.39698136674957 Q 514.9260655840073 352.39698136674957 513.9153233965073 352.53614152299957 Q 512.9045812090073 352.67530167924957 512.1428624590073 352.85108292924957 L 510.60477652150735 351.94287980424957 L 511.42508902150735 341.48389542924957 L 522.5579015215073 341.48389542924957 L 522.5579015215073 344.54541886674957 L 514.4573155840073 344.54541886674957 L 513.9739171465073 349.84815324174957 Q 514.4866124590073 349.76026261674957 515.2263585527573 349.64307511674957 Q 515.9661046465073 349.52588761674957 517.0354405840073 349.52588761674957 Z  M 541.4104405840073 352.19190324174957 Q 541.4104405840073 357.77295792924957 539.6160069902573 360.48291886674957 Q 537.8215733965073 363.19287980424957 534.1301671465073 363.19287980424957 Q 530.5559483965073 363.19287980424957 528.7102452715073 360.39502824174957 Q 526.8645421465073 357.59717667924957 526.8645421465073 352.19190324174957 Q 526.8645421465073 346.52295792924957 528.6589757402573 343.83496964799957 Q 530.4534093340073 341.14698136674957 534.1301671465073 341.14698136674957 Q 537.7190343340073 341.14698136674957 539.5647374590073 343.95948136674957 Q 541.4104405840073 346.77198136674957 541.4104405840073 352.19190324174957 Z  M 530.3508702715073 352.19190324174957 Q 530.3508702715073 356.57178605424957 531.2517491777573 358.44678605424957 Q 532.1526280840073 360.32178605424957 534.1301671465073 360.32178605424957 Q 536.1077062090073 360.32178605424957 537.0232335527573 358.41748917924957 Q 537.9387608965073 356.51319230424957 537.9387608965073 352.19190324174957 Q 537.9387608965073 347.88526261674957 537.0232335527573 345.95899308549957 Q 536.1077062090073 344.03272355424957 534.1301671465073 344.03272355424957 Q 532.1526280840073 344.03272355424957 531.2517491777573 345.92237199174957 Q 530.3508702715073 347.81202042924957 530.3508702715073 352.19190324174957 Z  M 562.5774327715073 362.89991105424957 L 556.3664952715073 345.01416886674957 L 556.2493077715073 345.01416886674957 Q 556.4983312090073 348.99854386674957 556.4983312090073 352.48487199174957 L 556.4983312090073 362.89991105424957 L 553.3196202715073 362.89991105424957 L 553.3196202715073 341.48389542924957 L 558.2561437090073 341.48389542924957 L 564.2034093340073 358.52002824174957 L 564.2912999590073 358.52002824174957 L 570.4143468340073 341.48389542924957 L 575.3655187090073 341.48389542924957 L 575.3655187090073 362.89991105424957 L 571.9963780840073 362.89991105424957 L 571.9963780840073 352.30909074174957 Q 571.9963780840073 350.71241105424957 572.0769444902573 348.14893449174957 Q 572.1575108965073 345.58545792924957 572.2161046465073 345.04346574174957 L 572.0989171465073 345.04346574174957 L 565.6682530840073 362.89991105424957 L 562.5774327715073 362.89991105424957 Z " fill-rule="evenodd" fill="rgb(0,0,0)" stroke-width="1" stroke="rgba(0,0,0,0)" stroke-linejoin="miter" stroke-linecap="square"/><path d=" M 227.36489313777597 352.76319230424957 Q 226.63247126277597 352.76319230424957 225.73159235652597 353.20264542924957 Q 224.83071345027597 353.64209855424957 223.93715876277597 354.53565324174957 L 223.93715876277597 351.73780167924957 Q 225.38735407527597 350.15577042924957 227.59926813777597 350.15577042924957 Q 228.56606501277597 350.15577042924957 229.43032282527597 350.34620011674957 Q 230.29458063777597 350.53662980424957 231.58364313777597 351.07862199174957 Q 233.50258845027597 351.88428605424957 234.80629938777597 351.88428605424957 Q 235.56801813777597 351.88428605424957 236.48354548152597 351.43018449174957 Q 237.39907282527597 350.97608292924957 238.24868220027597 350.12647355424957 L 238.24868220027597 352.90967667924957 Q 236.71059626277597 354.53565324174957 234.58657282527597 354.53565324174957 Q 233.63442438777597 354.53565324174957 232.71889704402597 354.30860246049957 Q 231.80336970027597 354.08155167924957 230.57290095027597 353.56885636674957 Q 228.71254938777597 352.76319230424957 227.36489313777597 352.76319230424957 Z  M 255.48989313777597 362.89991105424957 L 240.97329157527597 362.89991105424957 L 240.97329157527597 360.29248917924957 L 246.49575251277597 354.74073136674957 Q 248.94204157527597 352.23584855424957 249.74038141902597 351.18848527299957 Q 250.53872126277597 350.14112199174957 250.90493220027597 349.21827042924957 Q 251.27114313777597 348.29541886674957 251.27114313777597 347.24073136674957 Q 251.27114313777597 345.79053605424957 250.39956110652597 344.95557511674957 Q 249.52797907527597 344.12061417924957 247.98989313777597 344.12061417924957 Q 246.75942438777597 344.12061417924957 245.60952204402597 344.57471574174957 Q 244.45961970027597 345.02881730424957 242.95083063777597 346.21534074174957 L 241.09047907527597 343.94483292924957 Q 242.87758845027597 342.43604386674957 244.56215876277597 341.80616105424957 Q 246.24672907527597 341.17627824174957 248.15102595027597 341.17627824174957 Q 251.13930720027597 341.17627824174957 252.94106501277597 342.73633683549957 Q 254.74282282527597 344.29639542924957 254.74282282527597 346.93311417924957 Q 254.74282282527597 348.38330949174957 254.22280329402597 349.68702042924957 Q 253.70278376277597 350.99073136674957 252.62612360652597 352.37500871049957 Q 251.54946345027597 353.75928605424957 249.04458063777597 356.11768449174957 L 245.32387751277597 359.72120011674957 L 245.32387751277597 359.86768449174957 L 255.48989313777597 359.86768449174957 L 255.48989313777597 362.89991105424957 Z  M 272.613916575276 352.19190324174957 Q 272.613916575276 357.77295792924957 270.819482981526 360.48291886674957 Q 269.025049387776 363.19287980424957 265.333643137776 363.19287980424957 Q 261.759424387776 363.19287980424957 259.913721262776 360.39502824174957 Q 258.068018137776 357.59717667924957 258.068018137776 352.19190324174957 Q 258.068018137776 346.52295792924957 259.862451731526 343.83496964799957 Q 261.656885325276 341.14698136674957 265.333643137776 341.14698136674957 Q 268.922510325276 341.14698136674957 270.768213450276 343.95948136674957 Q 272.613916575276 346.77198136674957 272.613916575276 352.19190324174957 Z  M 261.554346262776 352.19190324174957 Q 261.554346262776 356.57178605424957 262.455225169026 358.44678605424957 Q 263.356104075276 360.32178605424957 265.333643137776 360.32178605424957 Q 267.311182200276 360.32178605424957 268.226709544026 358.41748917924957 Q 269.142236887776 356.51319230424957 269.142236887776 352.19190324174957 Q 269.142236887776 347.88526261674957 268.226709544026 345.95899308549957 Q 267.311182200276 344.03272355424957 265.333643137776 344.03272355424957 Q 263.356104075276 344.03272355424957 262.455225169026 345.92237199174957 Q 261.554346262776 347.81202042924957 261.554346262776 352.19190324174957 Z  M 290.499658762776 358.22705949174957 L 287.613916575276 358.22705949174957 L 287.613916575276 362.89991105424957 L 284.259424387776 362.89991105424957 L 284.259424387776 358.22705949174957 L 274.474268137776 358.22705949174957 L 274.474268137776 355.57569230424957 L 284.259424387776 341.42530167924957 L 287.613916575276 341.42530167924957 L 287.613916575276 355.37061417924957 L 290.499658762776 355.37061417924957 L 290.499658762776 358.22705949174957 Z  M 284.259424387776 355.37061417924957 L 284.259424387776 349.99463761674957 Q 284.259424387776 347.12354386674957 284.405908762776 345.29248917924957 L 284.288721262776 345.29248917924957 Q 283.878565012776 346.25928605424957 282.999658762776 347.63623917924957 L 277.682275950276 355.37061417924957 L 284.259424387776 355.37061417924957 Z  M 310.904932200276 362.89991105424957 L 304.693994700276 345.01416886674957 L 304.576807200276 345.01416886674957 Q 304.825830637776 348.99854386674957 304.825830637776 352.48487199174957 L 304.825830637776 362.89991105424957 L 301.647119700276 362.89991105424957 L 301.647119700276 341.48389542924957 L 306.583643137776 341.48389542924957 L 312.530908762776 358.52002824174957 L 312.618799387776 358.52002824174957 L 318.741846262776 341.48389542924957 L 323.693018137776 341.48389542924957 L 323.693018137776 362.89991105424957 L 320.323877512776 362.89991105424957 L 320.323877512776 352.30909074174957 Q 320.323877512776 350.71241105424957 320.404443919026 348.14893449174957 Q 320.485010325276 345.58545792924957 320.543604075276 345.04346574174957 L 320.426416575276 345.04346574174957 L 313.995752512776 362.89991105424957 L 310.904932200276 362.89991105424957 Z " fill-rule="evenodd" fill="rgb(0,0,0)" stroke-width="1" stroke="rgba(0,0,0,0)" stroke-linejoin="miter" stroke-linecap="square"/></svg>