<?xml version="1.0" standalone="no"?><!-- Generator: Gravit.io --><svg xmlns="http://www.w3.org/2000/svg" xmlns:xlink="http://www.w3.org/1999/xlink" style="isolation:isolate" viewBox="64.5833333333333 10.000000000000007 187.61901507304617 56.04492187499999" width="187.61901507304617" height="56.04492187499999"><path d=" M 65.3513333333333 18.256000000000007 L 80.64733333333331 18.256000000000007 L 84.2953333333333 29.232000000000006 L 87.8153333333333 18.256000000000007 L 102.5673333333333 18.256000000000007 L 102.5673333333333 23.50400000000001 L 100.64733333333331 23.50400000000001 L 100.64733333333331 37.90400000000001 L 102.5673333333333 37.90400000000001 L 102.5673333333333 43.15200000000001 L 89.7673333333333 43.15200000000001 L 89.7673333333333 37.90400000000001 L 91.6873333333333 37.90400000000001 L 91.6873333333333 25.264000000000006 L 85.3193333333333 43.15200000000001 L 81.8633333333333 43.15200000000001 L 74.6313333333333 25.200000000000006 L 74.6313333333333 37.90400000000001 L 76.5513333333333 37.90400000000001 L 76.5513333333333 43.15200000000001 L 65.3513333333333 43.15200000000001 L 65.3513333333333 37.90400000000001 L 67.2713333333333 37.90400000000001 L 67.2713333333333 23.50400000000001 L 65.3513333333333 23.50400000000001 L 65.3513333333333 18.256000000000007 Z  M 112.99933333333331 24.912000000000006 Q 115.46333333333331 24.912000000000006 117.0953333333333 25.63200000000001 Q 118.7273333333333 26.352000000000007 119.71933333333331 27.50400000000001 Q 120.7113333333333 28.656000000000006 121.1113333333333 30.128000000000007 Q 121.51133333333331 31.60000000000001 121.51133333333331 33.104000000000006 L 121.51133333333331 35.40800000000001 L 111.1433333333333 35.40800000000001 L 111.1433333333333 35.60000000000001 Q 111.1433333333333 36.75200000000001 111.7993333333333 37.32800000000001 Q 112.4553333333333 37.90400000000001 114.18333333333331 37.90400000000001 Q 116.2953333333333 37.90400000000001 118.0553333333333 37.584 Q 119.8153333333333 37.26400000000001 120.9673333333333 36.88000000000001 L 120.9673333333333 42.00000000000001 Q 120.39133333333331 42.28800000000001 119.6393333333333 42.56000000000001 Q 118.8873333333333 42.83200000000001 117.92733333333331 43.07200000000001 Q 116.9673333333333 43.312000000000005 115.7513333333333 43.45600000000001 Q 114.5353333333333 43.60000000000001 112.99933333333331 43.60000000000001 Q 110.7913333333333 43.60000000000001 108.99933333333331 43.02400000000001 Q 107.20733333333331 42.44800000000001 105.9433333333333 41.28000000000001 Q 104.6793333333333 40.11200000000001 104.00733333333329 38.36800000000001 Q 103.3353333333333 36.62400000000001 103.3353333333333 34.25600000000001 Q 103.3353333333333 31.92000000000001 104.00733333333329 30.160000000000007 Q 104.6793333333333 28.400000000000006 105.9433333333333 27.232000000000006 Q 107.20733333333331 26.064000000000007 108.99933333333331 25.488000000000007 Q 110.7913333333333 24.912000000000006 112.99933333333331 24.912000000000006 Z  M 112.99933333333331 30.608000000000008 Q 112.0713333333333 30.608000000000008 111.6073333333333 31.088000000000008 Q 111.1433333333333 31.56800000000001 111.1433333333333 32.656000000000006 L 111.1433333333333 32.848000000000006 L 114.8553333333333 32.848000000000006 L 114.8553333333333 32.656000000000006 Q 114.8553333333333 31.56800000000001 114.39133333333331 31.088000000000008 Q 113.92733333333331 30.608000000000008 112.99933333333331 30.608000000000008 Z  M 123.0153333333333 38.16000000000001 Q 125.41533333333331 38.51200000000001 126.9513333333333 38.62400000000001 Q 128.4873333333333 38.736000000000004 129.3833333333333 38.736000000000004 Q 130.79133333333328 38.736000000000004 131.2393333333333 38.51200000000001 Q 131.6873333333333 38.28800000000001 131.6873333333333 37.90400000000001 Q 131.6873333333333 37.48800000000001 131.20733333333328 37.28000000000001 Q 130.72733333333332 37.07200000000001 129.2233333333333 36.848000000000006 Q 125.8953333333333 36.400000000000006 123.9913333333333 34.92800000000001 Q 122.0873333333333 33.45600000000001 122.0873333333333 30.768000000000008 Q 122.0873333333333 29.52000000000001 122.5353333333333 28.448000000000008 Q 122.98333333333329 27.37600000000001 123.9753333333333 26.59200000000001 Q 124.9673333333333 25.808000000000007 126.5193333333333 25.360000000000007 Q 128.0713333333333 24.912000000000006 130.2473333333333 24.912000000000006 Q 132.6153333333333 24.912000000000006 134.5193333333333 25.184000000000008 Q 136.4233333333333 25.456000000000007 137.67133333333328 25.872000000000007 L 137.67133333333328 30.192000000000007 Q 136.13533333333328 30.000000000000007 134.5673333333333 29.872000000000007 Q 132.9993333333333 29.744000000000007 131.5913333333333 29.744000000000007 Q 130.2473333333333 29.744000000000007 129.6873333333333 29.936000000000007 Q 129.1273333333333 30.128000000000007 129.1273333333333 30.512000000000008 Q 129.1273333333333 30.704000000000008 129.2233333333333 30.848000000000006 Q 129.3193333333333 30.992000000000008 129.5913333333333 31.104000000000006 Q 129.8633333333333 31.216000000000008 130.3433333333333 31.296000000000006 Q 130.8233333333333 31.37600000000001 131.5593333333333 31.44000000000001 Q 135.2713333333333 31.79200000000001 137.0313333333333 33.26400000000001 Q 138.79133333333328 34.736000000000004 138.79133333333328 37.45600000000001 Q 138.79133333333328 40.30400000000001 136.8393333333333 41.95200000000001 Q 134.8873333333333 43.60000000000001 130.72733333333332 43.60000000000001 Q 128.2953333333333 43.60000000000001 126.2953333333333 43.312000000000005 Q 124.2953333333333 43.02400000000001 123.0153333333333 42.60800000000001 L 123.0153333333333 38.16000000000001 Z  M 140.1033333333333 38.16000000000001 Q 142.5033333333333 38.51200000000001 144.0393333333333 38.62400000000001 Q 145.5753333333333 38.736000000000004 146.4713333333333 38.736000000000004 Q 147.8793333333333 38.736000000000004 148.32733333333329 38.51200000000001 Q 148.77533333333332 38.28800000000001 148.77533333333332 37.90400000000001 Q 148.77533333333332 37.48800000000001 148.2953333333333 37.28000000000001 Q 147.81533333333329 37.07200000000001 146.31133333333332 36.848000000000006 Q 142.9833333333333 36.400000000000006 141.0793333333333 34.92800000000001 Q 139.1753333333333 33.45600000000001 139.1753333333333 30.768000000000008 Q 139.1753333333333 29.52000000000001 139.6233333333333 28.448000000000008 Q 140.0713333333333 27.37600000000001 141.0633333333333 26.59200000000001 Q 142.0553333333333 25.808000000000007 143.60733333333332 25.360000000000007 Q 145.1593333333333 24.912000000000006 147.33533333333332 24.912000000000006 Q 149.70333333333332 24.912000000000006 151.60733333333332 25.184000000000008 Q 153.5113333333333 25.456000000000007 154.7593333333333 25.872000000000007 L 154.7593333333333 30.192000000000007 Q 153.2233333333333 30.000000000000007 151.65533333333332 29.872000000000007 Q 150.0873333333333 29.744000000000007 148.67933333333332 29.744000000000007 Q 147.33533333333332 29.744000000000007 146.77533333333332 29.936000000000007 Q 146.21533333333332 30.128000000000007 146.21533333333332 30.512000000000008 Q 146.21533333333332 30.704000000000008 146.31133333333332 30.848000000000006 Q 146.40733333333333 30.992000000000008 146.67933333333332 31.104000000000006 Q 146.9513333333333 31.216000000000008 147.43133333333333 31.296000000000006 Q 147.9113333333333 31.37600000000001 148.6473333333333 31.44000000000001 Q 152.35933333333332 31.79200000000001 154.11933333333332 33.26400000000001 Q 155.8793333333333 34.736000000000004 155.8793333333333 37.45600000000001 Q 155.8793333333333 40.30400000000001 153.9273333333333 41.95200000000001 Q 151.9753333333333 43.60000000000001 147.81533333333329 43.60000000000001 Q 145.38333333333333 43.60000000000001 143.38333333333333 43.312000000000005 Q 141.38333333333333 43.02400000000001 140.1033333333333 42.60800000000001 L 140.1033333333333 38.16000000000001 Z  M 175.5913333333333 30.608000000000008 L 172.8713333333333 33.64800000000001 L 175.9433333333333 37.90400000000001 L 177.3193333333333 37.90400000000001 L 177.3193333333333 43.15200000000001 L 169.4793333333333 43.15200000000001 L 166.18333333333328 37.00800000000001 L 165.4153333333333 37.00800000000001 L 165.4153333333333 43.15200000000001 L 156.64733333333328 43.15200000000001 L 156.64733333333328 37.90400000000001 L 158.0553333333333 37.90400000000001 L 158.0553333333333 23.50400000000001 L 156.64733333333328 23.50400000000001 L 156.64733333333328 18.256000000000007 L 165.4153333333333 18.256000000000007 L 165.4153333333333 31.248000000000008 L 166.18333333333328 31.248000000000008 L 170.1513333333333 25.360000000000007 L 176.9033333333333 25.360000000000007 L 176.9033333333333 30.608000000000008 L 175.5913333333333 30.608000000000008 Z  M 186.9833333333333 37.90400000000001 L 188.3913333333333 37.90400000000001 L 188.3913333333333 43.15200000000001 L 178.2153333333333 43.15200000000001 L 178.2153333333333 37.90400000000001 L 179.62333333333328 37.90400000000001 L 179.62333333333328 30.608000000000008 L 178.2153333333333 30.608000000000008 L 178.2153333333333 25.360000000000007 L 186.9833333333333 25.360000000000007 L 186.9833333333333 37.90400000000001 Z  M 180.3913333333333 18.256000000000007 L 186.27933333333328 18.256000000000007 L 186.27933333333328 23.60000000000001 L 180.3913333333333 23.60000000000001 L 180.3913333333333 18.256000000000007 Z  M 189.2873333333333 18.256000000000007 L 198.0553333333333 18.256000000000007 L 198.0553333333333 37.90400000000001 L 199.4633333333333 37.90400000000001 L 199.4633333333333 43.15200000000001 L 189.2873333333333 43.15200000000001 L 189.2873333333333 37.90400000000001 L 190.69533333333328 37.90400000000001 L 190.69533333333328 23.50400000000001 L 189.2873333333333 23.50400000000001 L 189.2873333333333 18.256000000000007 Z " fill-rule="evenodd" fill="rgb(0,100,104)" stroke-width="0" stroke="rgb(0,0,0)" stroke-linejoin="miter" stroke-linecap="square"/><path d=" M 232.22617420318971 18.3039240347167 C 225.59061803928617 18.3039240347167 220.22610717499856 23.668434899004296 220.22610717499856 30.303991062907844 C 220.22610717499856 36.93954712681084 225.59061803928617 42.30405809109899 232.22617420318971 42.30405809109899 C 238.8617302670927 42.30405809109899 244.22624123138084 36.93954712681084 244.22624123138084 30.303991062907844 C 244.22624123138084 23.668434899004296 238.8617302670927 18.3039240347167 232.22617420318971 18.3039240347167 Z  M 232.22617420318971 20.303935206081892 C 236.36415931653204 20.303935206081892 239.8841409779225 22.758038613848015 241.41372552164856 26.303968720177465 L 241.22622447433307 26.303968720177465 L 234.2261853745549 26.303968720177465 L 231.2261686175071 26.303968720177465 L 230.2261630318245 26.303968720177465 L 226.22614068909414 26.303968720177465 L 223.22612393204633 26.303968720177465 L 223.03862288473087 26.303968720177465 C 224.56820782845912 22.758038613848015 228.0881887898457 20.303935206081892 232.22617420318971 20.303935206081892 Z  M 222.41361939367923 28.303979891542653 L 223.2886242811515 28.303979891542653 C 223.65371172040267 30.021845486941015 225.21131632063899 31.30399664859044 227.03864522746125 31.30399664859044 L 228.2261518604593 31.30399664859044 C 229.82616079755147 31.30399664859044 231.2261686175071 30.003989387203063 231.2261686175071 28.303979891542653 L 233.2261797888723 28.303979891542653 C 233.2261797888723 30.003989387203063 234.62618760882793 31.30399664859044 236.2261965459201 31.30399664859044 L 237.41370317891818 31.30399664859044 C 239.2410323857421 31.30399664859044 240.79863708597898 30.021845486941015 241.1637241252279 28.303979891542653 L 242.03872901270017 28.303979891542653 C 242.1669427288573 28.9484754914704 242.22623006001567 29.61912823750285 242.22623006001567 30.303991062907844 C 242.22623006001567 35.86850314433252 237.79068628461437 40.3040469197338 232.22617420318971 40.3040469197338 C 226.6616622217656 40.3040469197338 222.22611834636376 35.86850314433252 222.22611834636376 30.303991062907844 C 222.22611834636376 29.61912823750285 222.285405477521 28.9484754914704 222.41361939367923 28.303979891542653 Z  M 236.382447418683 32.804005027114336 C 236.382447418683 32.804005027114336 235.55000276893736 34.30401340563823 233.2261797888723 34.30401340563823 L 229.2261574461419 34.30401340563823 L 229.2261574461419 36.30402457700342 L 233.2261797888723 36.30402457700342 C 236.50238808862977 36.30402457700342 238.06995684452238 33.80401061279693 238.06995684452238 33.80401061279693 L 236.382447418683 32.804005027114336 Z " fill-rule="evenodd" fill="rgb(0,100,104)" stroke-width="4.166666666666668" stroke="rgba(0,0,0,0)" stroke-linejoin="miter" stroke-linecap="butt"/><path d=" M 232.35223753057997 11.904000000000003 C 221.4500830349455 11.904000000000003 212.50212665478045 19.773215234693062 212.50212665478045 29.579098726939876 C 212.50212665478045 34.38681998119481 214.69926212721327 38.707152913068484 218.17715835352917 41.8791674308358 C 218.0973835079347 44.24276703307922 217.06285564942272 46.01676574201758 215.82714522717507 47.35419801244801 C 214.54262861231305 48.74445457793654 213.19075602122402 49.55823672343991 212.4771265151384 50.17921379200134 C 212.06088927496253 50.53755611203425 212.24945657475288 51.40182290274006 212.77712819084317 51.554221472314914 C 215.55671027661973 52.30211444978436 218.7147267961991 51.76859546973333 221.60217748449207 50.72921686412677 C 224.35509846134897 49.73826412901024 226.81743461510032 48.281590392538554 228.5522163049861 46.879195359248776 C 229.77801035184433 47.091505345138344 231.0535910767936 47.25419745387975 232.35223753057997 47.25419745387975 C 243.25524403097344 47.25419745387975 252.20234840637949 39.38341989046007 252.20234840637949 29.579098726939876 C 252.20234840637949 19.773260994948664 243.25516243051766 11.904000000000003 232.35223753057997 11.904000000000003 Z  M 232.35223753057997 13.504008937092156 C 242.4894301534041 13.504008937092156 250.60233946928733 20.749632608620132 250.60233946928733 29.579098726939876 C 250.60233946928733 38.4068816358578 242.4893485529483 45.6541885167876 232.35223753057997 45.6541885167876 C 231.03143575304168 45.6541885167876 229.7222956406414 45.51524214068158 228.47721588605992 45.27918642215663 C 228.2183508695508 45.23443239896114 228.0286162566187 45.28551479475054 227.82721225536622 45.454187399651076 C 226.27572038927352 46.761183500075674 223.74975508011187 48.25817586175315 221.05217441236664 49.229208485602875 C 219.05125747594215 49.949466908715344 217.0364553419598 50.18324581452281 215.15214145683933 50.10421337307515 C 215.7335189442113 49.64092038528202 216.37573613141262 49.13218554366655 217.00215179035212 48.454204156698864 C 218.46065049701747 46.875644139412906 219.82716756990547 44.6156603159311 219.82716756990547 41.62916603441515 C 219.8259832527389 41.37158643946718 219.74651777246794 41.198207209785046 219.55216603384275 41.0291626830056 C 216.17234299532947 38.10003352191121 214.1021355918726 34.054085322655 214.1021355918726 29.579098726939876 C 214.1021355918726 20.749678208874837 222.21587451238972 13.504008937092156 232.35223753057997 13.504008937092156 Z  M 237.27726504006674 24.129068284969733" fill-rule="evenodd" fill="rgb(0,100,104)" stroke-width="2" stroke="rgba(0,0,0,0)" stroke-linejoin="miter" stroke-linecap="butt"/><path d=" M 72.44807398901 58.97705078125 Q 72.99006617651 58.97705078125 73.47346461401 58.973388671875 Q 73.95686305151 58.9697265625 74.36701930151 58.958740234375 Q 74.77717555151 58.94775390625 75.09944117651 58.92578125 Q 75.42170680151 58.90380859375 75.64143336401 58.8671875 L 75.64143336401 60.185546875 L 69.30598414526 60.185546875 Q 69.38655055151 59.74609375 69.40119898901 58.914794921875 Q 69.41584742651 58.08349609375 69.41584742651 56.99951171875 L 69.41584742651 52.67822265625 Q 69.41584742651 51.59423828125 69.40119898901 50.762939453125 Q 69.38655055151 49.931640625 69.30598414526 49.4921875 L 70.80744898901 49.4921875 L 70.80744898901 58.97705078125 L 72.44807398901 58.97705078125 Z  M 78.09504664526 56.63330078125 Q 78.11701930151 57.27783203125 78.296462660885 57.75390625 Q 78.47590602026 58.22998046875 78.787185317135 58.541259765625 Q 79.09846461401 58.8525390625 79.519607192135 59.00634765625 Q 79.94074977026 59.16015625 80.43879664526 59.16015625 Q 81.14924586401 59.16015625 81.83039820776 58.9990234375 Q 82.51155055151 58.837890625 83.18537867651 58.427734375 L 83.33186305151 59.63623046875 Q 82.94367945776 59.833984375 82.57014430151 59.97314453125 Q 82.19660914526 60.1123046875 81.82307398901 60.2001953125 Q 81.44953883276 60.2880859375 81.065017348385 60.328369140625 Q 80.68049586401 60.36865234375 80.25569117651 60.36865234375 Q 79.55256617651 60.36865234375 78.91535914526 60.123291015625 Q 78.27815211401 59.8779296875 77.79475367651 59.398193359375 Q 77.31135523901 58.91845703125 77.02571070776 58.2080078125 Q 76.74006617651 57.49755859375 76.74006617651 56.56005859375 Q 76.74006617651 55.65185546875 76.985427504635 54.915771484375 Q 77.23078883276 54.1796875 77.68489039526 53.656005859375 Q 78.13899195776 53.13232421875 78.79084742651 52.850341796875 Q 79.44270289526 52.568359375 80.25569117651 52.568359375 Q 80.85627711401 52.568359375 81.31770289526 52.711181640625 Q 81.77912867651 52.85400390625 82.11604273901 53.106689453125 Q 82.45295680151 53.359375 82.68000758276 53.6962890625 Q 82.90705836401 54.033203125 83.042556410885 54.42138671875 Q 83.17805445776 54.8095703125 83.23664820776 55.230712890625 Q 83.29524195776 55.65185546875 83.29524195776 56.06201171875 L 83.29524195776 56.34765625 Q 83.29524195776 56.53076171875 83.28791773901 56.63330078125 L 78.09504664526 56.63330078125 Z  M 80.14582789526 53.6669921875 Q 79.34016383276 53.6669921875 78.82746852026 54.139404296875 Q 78.31477320776 54.61181640625 78.15364039526 55.60791015625 L 81.97688258276 55.60791015625 Q 81.97688258276 55.13916015625 81.841384535885 54.776611328125 Q 81.70588648901 54.4140625 81.460525160885 54.1650390625 Q 81.21516383276 53.916015625 80.87824977026 53.79150390625 Q 80.54133570776 53.6669921875 80.14582789526 53.6669921875 Z  M 84.28401148901 52.89794921875 L 85.74885523901 52.89794921875 L 85.74885523901 50.517578125 L 87.10383570776 50.517578125 L 87.10383570776 52.89794921875 L 89.48420680151 52.89794921875 L 89.48420680151 53.9599609375 L 87.10383570776 53.9599609375 L 87.10383570776 57.3291015625 Q 87.10383570776 57.89306640625 87.158767348385 58.251953125 Q 87.21369898901 58.61083984375 87.327224379635 58.812255859375 Q 87.44074977026 59.013671875 87.61653102026 59.0869140625 Q 87.79231227026 59.16015625 88.04133570776 59.16015625 Q 88.35627711401 59.16015625 88.75178492651 59.02099609375 Q 89.14729273901 58.8818359375 89.63069117651 58.61083984375 L 89.63069117651 59.78271484375 Q 89.12532008276 60.1123046875 88.66389430151 60.240478515625 Q 88.20246852026 60.36865234375 87.81428492651 60.36865234375 Q 87.38215602026 60.36865234375 87.00862086401 60.269775390625 Q 86.63508570776 60.1708984375 86.353103285885 59.921875 Q 86.07112086401 59.6728515625 85.90998805151 59.259033203125 Q 85.74885523901 58.84521484375 85.74885523901 58.2080078125 L 85.74885523901 53.9599609375 L 84.28401148901 53.9599609375 L 84.28401148901 52.89794921875 Z  M 91.93782008276 52.53173828125 Q 91.92317164526 52.1435546875 91.90852320776 51.729736328125 Q 91.89387477026 51.31591796875 91.86457789526 50.83984375 Q 91.83528102026 50.36376953125 91.78401148901 49.80712890625 Q 91.73274195776 49.25048828125 91.64485133276 48.57666015625 L 93.14631617651 48.57666015625 Q 93.06574977026 49.25048828125 93.01448023901 49.80712890625 Q 92.96321070776 50.36376953125 92.93391383276 50.83984375 Q 92.90461695776 51.31591796875 92.886306410885 51.729736328125 Q 92.86799586401 52.1435546875 92.85334742651 52.53173828125 L 91.93782008276 52.53173828125 Z  M 100.47053492651 54.43603515625 Q 100.28742945776 54.326171875 100.05305445776 54.205322265625 Q 99.81867945776 54.08447265625 99.544021254635 53.98193359375 Q 99.26936305151 53.87939453125 98.958083754635 53.809814453125 Q 98.64680445776 53.740234375 98.30989039526 53.740234375 Q 97.90705836401 53.740234375 97.632400160885 53.828125 Q 97.35774195776 53.916015625 97.192947035885 54.051513671875 Q 97.02815211401 54.18701171875 96.95490992651 54.359130859375 Q 96.88166773901 54.53125 96.88166773901 54.6923828125 Q 96.88166773901 54.8828125 96.94026148901 55.029296875 Q 96.99885523901 55.17578125 97.185622817135 55.30029296875 Q 97.37239039526 55.4248046875 97.71662867651 55.5419921875 Q 98.06086695776 55.6591796875 98.63948023901 55.791015625 Q 99.13752711401 55.90087890625 99.57698023901 56.072998046875 Q 100.01643336401 56.2451171875 100.34602320776 56.5087890625 Q 100.67561305151 56.7724609375 100.86604273901 57.142333984375 Q 101.05647242651 57.51220703125 101.05647242651 58.02490234375 Q 101.05647242651 58.52294921875 100.83674586401 58.94775390625 Q 100.61701930151 59.37255859375 100.23615992651 59.691162109375 Q 99.85530055151 60.009765625 99.34260523901 60.189208984375 Q 98.82990992651 60.36865234375 98.23664820776 60.36865234375 Q 97.78987086401 60.36865234375 97.376052504635 60.302734375 Q 96.96223414526 60.23681640625 96.599685317135 60.11962890625 Q 96.23713648901 60.00244140625 95.93684352026 59.8486328125 Q 95.63655055151 59.69482421875 95.41682398901 59.5263671875 L 95.78303492651 58.2080078125 Q 96.03205836401 58.427734375 96.343337660885 58.61083984375 Q 96.65461695776 58.7939453125 96.98420680151 58.92578125 Q 97.31379664526 59.0576171875 97.647048598385 59.127197265625 Q 97.98030055151 59.19677734375 98.27326930151 59.19677734375 Q 98.59553492651 59.19677734375 98.862868910885 59.112548828125 Q 99.13020289526 59.0283203125 99.324294692135 58.892822265625 Q 99.51838648901 58.75732421875 99.62824977026 58.577880859375 Q 99.73811305151 58.3984375 99.73811305151 58.2080078125 Q 99.73811305151 58.0029296875 99.653884535885 57.823486328125 Q 99.56965602026 57.64404296875 99.346267348385 57.479248046875 Q 99.12287867651 57.314453125 98.731032973385 57.16064453125 Q 98.33918727026 57.0068359375 97.72395289526 56.85302734375 Q 97.05744898901 56.69189453125 96.636306410885 56.47216796875 Q 96.21516383276 56.25244140625 95.977126723385 55.98876953125 Q 95.73908961401 55.72509765625 95.65119898901 55.41748046875 Q 95.56330836401 55.10986328125 95.56330836401 54.765625 Q 95.56330836401 54.59716796875 95.618240004635 54.3701171875 Q 95.67317164526 54.14306640625 95.801345473385 53.897705078125 Q 95.92951930151 53.65234375 96.138259535885 53.414306640625 Q 96.34699977026 53.17626953125 96.66194117651 52.989501953125 Q 96.97688258276 52.802734375 97.40168727026 52.685546875 Q 97.82649195776 52.568359375 98.38313258276 52.568359375 Q 98.77864039526 52.568359375 99.126540785885 52.61962890625 Q 99.47444117651 52.6708984375 99.763747817135 52.755126953125 Q 100.05305445776 52.83935546875 100.29475367651 52.945556640625 Q 100.53645289526 53.0517578125 100.72688258276 53.154296875 L 100.47053492651 54.43603515625 Z  M 106.76936305151 60.185546875 L 106.76936305151 51.9091796875 Q 106.76936305151 50.72265625 106.75471461401 49.832763671875 Q 106.74006617651 48.94287109375 106.65949977026 48.466796875 L 108.12434352026 48.466796875 L 108.12434352026 55.78369140625 L 111.09065211401 52.71484375 L 112.92170680151 52.71484375 L 109.29621852026 55.98876953125 L 113.14143336401 60.185546875 L 111.34699977026 60.185546875 L 108.12434352026 56.376953125 L 108.12434352026 60.185546875 L 106.76936305151 60.185546875 Z  M 114.42317164526 50.33447265625 Q 114.42317164526 50.12939453125 114.48908961401 49.949951171875 Q 114.55500758276 49.7705078125 114.675857192135 49.635009765625 Q 114.79670680151 49.49951171875 114.96516383276 49.422607421875 Q 115.13362086401 49.345703125 115.33869898901 49.345703125 Q 115.54377711401 49.345703125 115.71955836401 49.422607421875 Q 115.89533961401 49.49951171875 116.01985133276 49.635009765625 Q 116.14436305151 49.7705078125 116.21760523901 49.949951171875 Q 116.29084742651 50.12939453125 116.29084742651 50.33447265625 Q 116.29084742651 50.53955078125 116.21760523901 50.718994140625 Q 116.14436305151 50.8984375 116.01985133276 51.033935546875 Q 115.89533961401 51.16943359375 115.71955836401 51.246337890625 Q 115.54377711401 51.3232421875 115.33869898901 51.3232421875 Q 115.13362086401 51.3232421875 114.96516383276 51.246337890625 Q 114.79670680151 51.16943359375 114.675857192135 51.033935546875 Q 114.55500758276 50.8984375 114.48908961401 50.718994140625 Q 114.42317164526 50.53955078125 114.42317164526 50.33447265625 Z  M 116.03449977026 56.70654296875 Q 116.03449977026 57.05810546875 116.045486098385 57.537841796875 Q 116.05647242651 58.017578125 116.074782973385 58.50830078125 Q 116.09309352026 58.9990234375 116.118728285885 59.44580078125 Q 116.14436305151 59.892578125 116.18098414526 60.185546875 L 114.67951930151 60.185546875 L 114.67951930151 56.3037109375 Q 114.67951930151 55.76904296875 114.675857192135 55.2490234375 Q 114.67219508276 54.72900390625 114.661208754635 54.263916015625 Q 114.65022242651 53.798828125 114.62824977026 53.399658203125 Q 114.60627711401 53.00048828125 114.56965602026 52.71484375 L 116.03449977026 52.71484375 L 116.03449977026 56.70654296875 Z  M 120.17268336401 56.70654296875 Q 120.17268336401 57.05810546875 120.183669692135 57.5341796875 Q 120.19465602026 58.01025390625 120.212966567135 58.5009765625 Q 120.23127711401 58.99169921875 120.256911879635 59.4384765625 Q 120.28254664526 59.88525390625 120.31916773901 60.185546875 L 118.81770289526 60.185546875 L 118.81770289526 51.9091796875 Q 118.81770289526 50.83984375 118.78108180151 49.971923828125 Q 118.74446070776 49.10400390625 118.67121852026 48.466796875 L 120.17268336401 48.466796875 L 120.17268336401 56.70654296875 Z  M 124.31086695776 56.70654296875 Q 124.31086695776 57.05810546875 124.321853285885 57.5341796875 Q 124.33283961401 58.01025390625 124.351150160885 58.5009765625 Q 124.36946070776 58.99169921875 124.395095473385 59.4384765625 Q 124.42073023901 59.88525390625 124.45735133276 60.185546875 L 122.95588648901 60.185546875 L 122.95588648901 51.9091796875 Q 122.95588648901 50.83984375 122.91926539526 49.971923828125 Q 122.88264430151 49.10400390625 122.80940211401 48.466796875 L 124.31086695776 48.466796875 L 124.31086695776 56.70654296875 Z  M 129.95051539526 52.89794921875 L 131.41535914526 52.89794921875 L 131.41535914526 50.517578125 L 132.77033961401 50.517578125 L 132.77033961401 52.89794921875 L 135.15071070776 52.89794921875 L 135.15071070776 53.9599609375 L 132.77033961401 53.9599609375 L 132.77033961401 57.3291015625 Q 132.77033961401 57.89306640625 132.825271254635 58.251953125 Q 132.88020289526 58.61083984375 132.993728285885 58.812255859375 Q 133.10725367651 59.013671875 133.28303492651 59.0869140625 Q 133.45881617651 59.16015625 133.70783961401 59.16015625 Q 134.02278102026 59.16015625 134.41828883276 59.02099609375 Q 134.81379664526 58.8818359375 135.29719508276 58.61083984375 L 135.29719508276 59.78271484375 Q 134.79182398901 60.1123046875 134.33039820776 60.240478515625 Q 133.86897242651 60.36865234375 133.48078883276 60.36865234375 Q 133.04865992651 60.36865234375 132.67512477026 60.269775390625 Q 132.30158961401 60.1708984375 132.019607192135 59.921875 Q 131.73762477026 59.6728515625 131.57649195776 59.259033203125 Q 131.41535914526 58.84521484375 131.41535914526 58.2080078125 L 131.41535914526 53.9599609375 L 129.95051539526 53.9599609375 L 129.95051539526 52.89794921875 Z  M 142.10871852026 60.185546875 L 142.10871852026 56.1572265625 Q 142.10871852026 55.46875 142.017165785885 55.02197265625 Q 141.92561305151 54.5751953125 141.74250758276 54.315185546875 Q 141.55940211401 54.05517578125 141.284743910885 53.95263671875 Q 141.01008570776 53.85009765625 140.64387477026 53.85009765625 Q 140.24836695776 53.85009765625 139.871169692135 54.036865234375 Q 139.49397242651 54.2236328125 139.17903102026 54.520263671875 Q 138.86408961401 54.81689453125 138.62239039526 55.1904296875 Q 138.38069117651 55.56396484375 138.26350367651 55.9375 L 138.26350367651 60.185546875 L 136.90852320776 60.185546875 L 136.90852320776 51.9091796875 Q 136.90852320776 50.72265625 136.89387477026 49.832763671875 Q 136.87922633276 48.94287109375 136.79865992651 48.466796875 L 138.26350367651 48.466796875 L 138.26350367651 54.1064453125 Q 138.80549586401 53.33740234375 139.53791773901 52.952880859375 Q 140.27033961401 52.568359375 141.04670680151 52.568359375 Q 142.21858180151 52.568359375 142.84114039526 53.333740234375 Q 143.46369898901 54.09912109375 143.46369898901 55.60791015625 L 143.46369898901 60.185546875 L 142.10871852026 60.185546875 Z  M 146.50324977026 56.63330078125 Q 146.52522242651 57.27783203125 146.704665785885 57.75390625 Q 146.88410914526 58.22998046875 147.195388442135 58.541259765625 Q 147.50666773901 58.8525390625 147.927810317135 59.00634765625 Q 148.34895289526 59.16015625 148.84699977026 59.16015625 Q 149.55744898901 59.16015625 150.23860133276 58.9990234375 Q 150.91975367651 58.837890625 151.59358180151 58.427734375 L 151.74006617651 59.63623046875 Q 151.35188258276 59.833984375 150.97834742651 59.97314453125 Q 150.60481227026 60.1123046875 150.23127711401 60.2001953125 Q 149.85774195776 60.2880859375 149.473220473385 60.328369140625 Q 149.08869898901 60.36865234375 148.66389430151 60.36865234375 Q 147.96076930151 60.36865234375 147.32356227026 60.123291015625 Q 146.68635523901 59.8779296875 146.20295680151 59.398193359375 Q 145.71955836401 58.91845703125 145.43391383276 58.2080078125 Q 145.14826930151 57.49755859375 145.14826930151 56.56005859375 Q 145.14826930151 55.65185546875 145.393630629635 54.915771484375 Q 145.63899195776 54.1796875 146.09309352026 53.656005859375 Q 146.54719508276 53.13232421875 147.19905055151 52.850341796875 Q 147.85090602026 52.568359375 148.66389430151 52.568359375 Q 149.26448023901 52.568359375 149.72590602026 52.711181640625 Q 150.18733180151 52.85400390625 150.52424586401 53.106689453125 Q 150.86115992651 53.359375 151.08821070776 53.6962890625 Q 151.31526148901 54.033203125 151.450759535885 54.42138671875 Q 151.58625758276 54.8095703125 151.64485133276 55.230712890625 Q 151.70344508276 55.65185546875 151.70344508276 56.06201171875 L 151.70344508276 56.34765625 Q 151.70344508276 56.53076171875 151.69612086401 56.63330078125 L 146.50324977026 56.63330078125 Z  M 148.55403102026 53.6669921875 Q 147.74836695776 53.6669921875 147.23567164526 54.139404296875 Q 146.72297633276 54.61181640625 146.56184352026 55.60791015625 L 150.38508570776 55.60791015625 Q 150.38508570776 55.13916015625 150.249587660885 54.776611328125 Q 150.11408961401 54.4140625 149.868728285885 54.1650390625 Q 149.62336695776 53.916015625 149.28645289526 53.79150390625 Q 148.94953883276 53.6669921875 148.55403102026 53.6669921875 Z  M 163.42219508276 60.185546875 L 162.06721461401 60.185546875 L 162.06721461401 56.0107421875 Q 162.06721461401 55.32958984375 162.01594508276 54.908447265625 Q 161.96467555151 54.4873046875 161.843825942135 54.249267578125 Q 161.72297633276 54.01123046875 161.51789820776 53.9306640625 Q 161.31282008276 53.85009765625 161.00520289526 53.85009765625 Q 160.73420680151 53.85009765625 160.46321070776 53.9599609375 Q 160.19221461401 54.06982421875 159.946853285885 54.271240234375 Q 159.70149195776 54.47265625 159.492751723385 54.747314453125 Q 159.28401148901 55.02197265625 159.13752711401 55.3515625 L 159.13752711401 60.185546875 L 157.78254664526 60.185546875 L 157.78254664526 55.68115234375 Q 157.78254664526 54.59716796875 157.65803492651 53.846435546875 Q 157.53352320776 53.095703125 157.41633570776 52.71484375 L 158.73469508276 52.71484375 Q 158.81526148901 52.94921875 158.87385523901 53.267822265625 Q 158.93244898901 53.58642578125 158.96907008276 53.85009765625 Q 159.30598414526 53.4619140625 159.61360133276 53.212890625 Q 159.92121852026 52.9638671875 160.225173598385 52.821044921875 Q 160.52912867651 52.67822265625 160.82942164526 52.623291015625 Q 161.12971461401 52.568359375 161.44465602026 52.568359375 Q 161.80354273901 52.568359375 162.09651148901 52.6708984375 Q 162.38948023901 52.7734375 162.612868910885 52.94189453125 Q 162.83625758276 53.1103515625 162.99739039526 53.333740234375 Q 163.15852320776 53.55712890625 163.24641383276 53.798828125 Q 163.59065211401 53.42529296875 163.91291773901 53.187255859375 Q 164.23518336401 52.94921875 164.54280055151 52.813720703125 Q 164.85041773901 52.67822265625 165.147048598385 52.623291015625 Q 165.44367945776 52.568359375 165.72932398901 52.568359375 Q 166.28596461401 52.568359375 166.66682398901 52.747802734375 Q 167.04768336401 52.92724609375 167.278396254635 53.27880859375 Q 167.50910914526 53.63037109375 167.607986098385 54.150390625 Q 167.70686305151 54.67041015625 167.70686305151 55.3515625 L 167.70686305151 60.185546875 L 166.35188258276 60.185546875 L 166.35188258276 56.1572265625 Q 166.35188258276 55.44677734375 166.30061305151 55 Q 166.24934352026 54.55322265625 166.128493910885 54.296875 Q 166.00764430151 54.04052734375 165.80256617651 53.9453125 Q 165.59748805151 53.85009765625 165.28987086401 53.85009765625 Q 165.01887477026 53.85009765625 164.75520289526 53.956298828125 Q 164.49153102026 54.0625 164.246169692135 54.256591796875 Q 164.00080836401 54.45068359375 163.792068129635 54.72900390625 Q 163.58332789526 55.00732421875 163.42219508276 55.3515625 L 163.42219508276 60.185546875 Z  M 170.89289820776 56.63330078125 Q 170.91487086401 57.27783203125 171.094314223385 57.75390625 Q 171.27375758276 58.22998046875 171.585036879635 58.541259765625 Q 171.89631617651 58.8525390625 172.317458754635 59.00634765625 Q 172.73860133276 59.16015625 173.23664820776 59.16015625 Q 173.94709742651 59.16015625 174.62824977026 58.9990234375 Q 175.30940211401 58.837890625 175.98323023901 58.427734375 L 176.12971461401 59.63623046875 Q 175.74153102026 59.833984375 175.36799586401 59.97314453125 Q 174.99446070776 60.1123046875 174.62092555151 60.2001953125 Q 174.24739039526 60.2880859375 173.862868910885 60.328369140625 Q 173.47834742651 60.36865234375 173.05354273901 60.36865234375 Q 172.35041773901 60.36865234375 171.71321070776 60.123291015625 Q 171.07600367651 59.8779296875 170.59260523901 59.398193359375 Q 170.10920680151 58.91845703125 169.82356227026 58.2080078125 Q 169.53791773901 57.49755859375 169.53791773901 56.56005859375 Q 169.53791773901 55.65185546875 169.783279067135 54.915771484375 Q 170.02864039526 54.1796875 170.48274195776 53.656005859375 Q 170.93684352026 53.13232421875 171.58869898901 52.850341796875 Q 172.24055445776 52.568359375 173.05354273901 52.568359375 Q 173.65412867651 52.568359375 174.11555445776 52.711181640625 Q 174.57698023901 52.85400390625 174.91389430151 53.106689453125 Q 175.25080836401 53.359375 175.47785914526 53.6962890625 Q 175.70490992651 54.033203125 175.840407973385 54.42138671875 Q 175.97590602026 54.8095703125 176.03449977026 55.230712890625 Q 176.09309352026 55.65185546875 176.09309352026 56.06201171875 L 176.09309352026 56.34765625 Q 176.09309352026 56.53076171875 176.08576930151 56.63330078125 L 170.89289820776 56.63330078125 Z  M 172.94367945776 53.6669921875 Q 172.13801539526 53.6669921875 171.62532008276 54.139404296875 Q 171.11262477026 54.61181640625 170.95149195776 55.60791015625 L 174.77473414526 55.60791015625 Q 174.77473414526 55.13916015625 174.639236098385 54.776611328125 Q 174.50373805151 54.4140625 174.258376723385 54.1650390625 Q 174.01301539526 53.916015625 173.67610133276 53.79150390625 Q 173.33918727026 53.6669921875 172.94367945776 53.6669921875 Z  M 182.72151148901 54.43603515625 Q 182.53840602026 54.326171875 182.30403102026 54.205322265625 Q 182.06965602026 54.08447265625 181.794997817135 53.98193359375 Q 181.52033961401 53.87939453125 181.209060317135 53.809814453125 Q 180.89778102026 53.740234375 180.56086695776 53.740234375 Q 180.15803492651 53.740234375 179.883376723385 53.828125 Q 179.60871852026 53.916015625 179.443923598385 54.051513671875 Q 179.27912867651 54.18701171875 179.20588648901 54.359130859375 Q 179.13264430151 54.53125 179.13264430151 54.6923828125 Q 179.13264430151 54.8828125 179.19123805151 55.029296875 Q 179.24983180151 55.17578125 179.436599379635 55.30029296875 Q 179.62336695776 55.4248046875 179.96760523901 55.5419921875 Q 180.31184352026 55.6591796875 180.89045680151 55.791015625 Q 181.38850367651 55.90087890625 181.82795680151 56.072998046875 Q 182.26740992651 56.2451171875 182.59699977026 56.5087890625 Q 182.92658961401 56.7724609375 183.11701930151 57.142333984375 Q 183.30744898901 57.51220703125 183.30744898901 58.02490234375 Q 183.30744898901 58.52294921875 183.08772242651 58.94775390625 Q 182.86799586401 59.37255859375 182.48713648901 59.691162109375 Q 182.10627711401 60.009765625 181.59358180151 60.189208984375 Q 181.08088648901 60.36865234375 180.48762477026 60.36865234375 Q 180.04084742651 60.36865234375 179.627029067135 60.302734375 Q 179.21321070776 60.23681640625 178.850661879635 60.11962890625 Q 178.48811305151 60.00244140625 178.18782008276 59.8486328125 Q 177.88752711401 59.69482421875 177.66780055151 59.5263671875 L 178.03401148901 58.2080078125 Q 178.28303492651 58.427734375 178.594314223385 58.61083984375 Q 178.90559352026 58.7939453125 179.23518336401 58.92578125 Q 179.56477320776 59.0576171875 179.898025160885 59.127197265625 Q 180.23127711401 59.19677734375 180.52424586401 59.19677734375 Q 180.84651148901 59.19677734375 181.113845473385 59.112548828125 Q 181.38117945776 59.0283203125 181.575271254635 58.892822265625 Q 181.76936305151 58.75732421875 181.87922633276 58.577880859375 Q 181.98908961401 58.3984375 181.98908961401 58.2080078125 Q 181.98908961401 58.0029296875 181.904861098385 57.823486328125 Q 181.82063258276 57.64404296875 181.597243910885 57.479248046875 Q 181.37385523901 57.314453125 180.982009535885 57.16064453125 Q 180.59016383276 57.0068359375 179.97492945776 56.85302734375 Q 179.30842555151 56.69189453125 178.887282973385 56.47216796875 Q 178.46614039526 56.25244140625 178.228103285885 55.98876953125 Q 177.99006617651 55.72509765625 177.90217555151 55.41748046875 Q 177.81428492651 55.10986328125 177.81428492651 54.765625 Q 177.81428492651 54.59716796875 177.869216567135 54.3701171875 Q 177.92414820776 54.14306640625 178.052322035885 53.897705078125 Q 178.18049586401 53.65234375 178.389236098385 53.414306640625 Q 178.59797633276 53.17626953125 178.91291773901 52.989501953125 Q 179.22785914526 52.802734375 179.65266383276 52.685546875 Q 180.07746852026 52.568359375 180.63410914526 52.568359375 Q 181.02961695776 52.568359375 181.377517348385 52.61962890625 Q 181.72541773901 52.6708984375 182.014724379635 52.755126953125 Q 182.30403102026 52.83935546875 182.54573023901 52.945556640625 Q 182.78742945776 53.0517578125 182.97785914526 53.154296875 L 182.72151148901 54.43603515625 Z  M 189.78938258276 54.43603515625 Q 189.60627711401 54.326171875 189.37190211401 54.205322265625 Q 189.13752711401 54.08447265625 188.862868910885 53.98193359375 Q 188.58821070776 53.87939453125 188.276931410885 53.809814453125 Q 187.96565211401 53.740234375 187.62873805151 53.740234375 Q 187.22590602026 53.740234375 186.951247817135 53.828125 Q 186.67658961401 53.916015625 186.511794692135 54.051513671875 Q 186.34699977026 54.18701171875 186.27375758276 54.359130859375 Q 186.20051539526 54.53125 186.20051539526 54.6923828125 Q 186.20051539526 54.8828125 186.25910914526 55.029296875 Q 186.31770289526 55.17578125 186.504470473385 55.30029296875 Q 186.69123805151 55.4248046875 187.03547633276 55.5419921875 Q 187.37971461401 55.6591796875 187.95832789526 55.791015625 Q 188.45637477026 55.90087890625 188.89582789526 56.072998046875 Q 189.33528102026 56.2451171875 189.66487086401 56.5087890625 Q 189.99446070776 56.7724609375 190.18489039526 57.142333984375 Q 190.37532008276 57.51220703125 190.37532008276 58.02490234375 Q 190.37532008276 58.52294921875 190.15559352026 58.94775390625 Q 189.93586695776 59.37255859375 189.55500758276 59.691162109375 Q 189.17414820776 60.009765625 188.66145289526 60.189208984375 Q 188.14875758276 60.36865234375 187.55549586401 60.36865234375 Q 187.10871852026 60.36865234375 186.694900160885 60.302734375 Q 186.28108180151 60.23681640625 185.918532973385 60.11962890625 Q 185.55598414526 60.00244140625 185.25569117651 59.8486328125 Q 184.95539820776 59.69482421875 184.73567164526 59.5263671875 L 185.10188258276 58.2080078125 Q 185.35090602026 58.427734375 185.662185317135 58.61083984375 Q 185.97346461401 58.7939453125 186.30305445776 58.92578125 Q 186.63264430151 59.0576171875 186.965896254635 59.127197265625 Q 187.29914820776 59.19677734375 187.59211695776 59.19677734375 Q 187.91438258276 59.19677734375 188.181716567135 59.112548828125 Q 188.44905055151 59.0283203125 188.643142348385 58.892822265625 Q 188.83723414526 58.75732421875 188.94709742651 58.577880859375 Q 189.05696070776 58.3984375 189.05696070776 58.2080078125 Q 189.05696070776 58.0029296875 188.972732192135 57.823486328125 Q 188.88850367651 57.64404296875 188.665115004635 57.479248046875 Q 188.44172633276 57.314453125 188.049880629635 57.16064453125 Q 187.65803492651 57.0068359375 187.04280055151 56.85302734375 Q 186.37629664526 56.69189453125 185.955154067135 56.47216796875 Q 185.53401148901 56.25244140625 185.295974379635 55.98876953125 Q 185.05793727026 55.72509765625 184.97004664526 55.41748046875 Q 184.88215602026 55.10986328125 184.88215602026 54.765625 Q 184.88215602026 54.59716796875 184.937087660885 54.3701171875 Q 184.99201930151 54.14306640625 185.120193129635 53.897705078125 Q 185.24836695776 53.65234375 185.457107192135 53.414306640625 Q 185.66584742651 53.17626953125 185.98078883276 52.989501953125 Q 186.29573023901 52.802734375 186.72053492651 52.685546875 Q 187.14533961401 52.568359375 187.70198023901 52.568359375 Q 188.09748805151 52.568359375 188.445388442135 52.61962890625 Q 188.79328883276 52.6708984375 189.082595473385 52.755126953125 Q 189.37190211401 52.83935546875 189.61360133276 52.945556640625 Q 189.85530055151 53.0517578125 190.04573023901 53.154296875 L 189.78938258276 54.43603515625 Z  M 192.64582789526 59.3798828125 Q 192.64582789526 59.1748046875 192.722732192135 58.995361328125 Q 192.79963648901 58.81591796875 192.935134535885 58.680419921875 Q 193.07063258276 58.544921875 193.250075942135 58.468017578125 Q 193.42951930151 58.39111328125 193.63459742651 58.39111328125 Q 193.83967555151 58.39111328125 194.019118910885 58.468017578125 Q 194.19856227026 58.544921875 194.334060317135 58.680419921875 Q 194.46955836401 58.81591796875 194.546462660885 58.995361328125 Q 194.62336695776 59.1748046875 194.62336695776 59.3798828125 Q 194.62336695776 59.5849609375 194.546462660885 59.764404296875 Q 194.46955836401 59.94384765625 194.334060317135 60.079345703125 Q 194.19856227026 60.21484375 194.019118910885 60.291748046875 Q 193.83967555151 60.36865234375 193.63459742651 60.36865234375 Q 193.42951930151 60.36865234375 193.250075942135 60.291748046875 Q 193.07063258276 60.21484375 192.935134535885 60.079345703125 Q 192.79963648901 59.94384765625 192.722732192135 59.764404296875 Q 192.64582789526 59.5849609375 192.64582789526 59.3798828125 Z  M 193.01203883276 56.962890625 Q 192.99006617651 56.16455078125 192.98274195776 55.289306640625 Q 192.97541773901 54.4140625 192.949782973385 53.43994140625 Q 192.92414820776 52.4658203125 192.87287867651 51.392822265625 Q 192.82160914526 50.31982421875 192.71907008276 49.1259765625 L 194.58674586401 49.1259765625 Q 194.47688258276 50.31982421875 194.42561305151 51.392822265625 Q 194.37434352026 52.4658203125 194.348708754635 53.43994140625 Q 194.32307398901 54.4140625 194.31574977026 55.289306640625 Q 194.30842555151 56.16455078125 194.29377711401 56.962890625 L 193.01203883276 56.962890625 Z " fill-rule="evenodd" fill="rgb(0,100,104)" stroke-width="0" stroke="rgb(0,0,0)" stroke-linejoin="miter" stroke-linecap="square"/></svg>